<svg width="97" height="93" viewBox="0 0 97 93" fill="none" xmlns="http://www.w3.org/2000/svg">
<path d="M12.502 31.9506C10.3975 34.5992 -0.561619 54.1332 0.0225114 54.0733L5.26957 56.7678L2.29151 61.5894C19.6783 63.0143 25.6476 68.7101 33.1802 83.1449C32.2385 84.4552 33.1841 87.3565 33.7514 88.0656C34.3186 88.7747 36.8863 89.866 38.8792 89.8101C39.2928 89.982 39.6792 90.1458 40.0453 90.301C42.6663 91.4121 44.2399 92.0791 47.2461 92.0791C50.2523 92.0791 51.8259 91.4121 54.4469 90.301C54.8129 90.1458 55.1994 89.982 55.613 89.8101C57.6059 89.866 60.1736 88.7747 60.7408 88.0656C61.3081 87.3565 62.2537 84.4552 61.312 83.1449C68.8446 68.7101 74.8139 63.0143 92.2007 61.5894L89.2226 56.7678L96.4325 51.1943C97.0167 51.2542 84.7813 33.7055 82.6767 31.0569C81.879 30.053 82.5091 26.9327 84.0804 22.1424C86.6544 14.2952 89.9118 4.3648 85.6773 2.16996C78.8578 -1.36472 71.7974 -1.0371 47.2461 6.5792C22.6948 -1.0371 15.6344 -1.36472 8.81489 2.16996C4.58038 4.3648 7.83777 14.2952 10.4118 22.1424C11.9831 26.9327 13.2998 30.9466 12.502 31.9506Z" fill="black"/>
<path d="M11.9974 6.2714C11.6658 5.34749 12.3443 4.43066 13.3189 4.54828C15.1378 4.76781 18.7908 5.2586 24.3211 6.37754C24.133 6.01129 23.9658 5.73513 23.8245 5.56654C22.0377 3.43444 45.9629 11.3654 47.4363 11.8553C48.9098 11.3654 72.835 3.43444 71.0481 5.56654C70.9068 5.73513 70.7397 6.01129 70.5515 6.37754C76.0819 5.2586 79.7348 4.76781 81.5538 4.54828C82.5283 4.43066 83.2069 5.34749 82.8753 6.2714L72.0408 25.8099C79.1728 34.1143 85.0305 41.319 89.4838 51.3362L84.2367 55.4488L86.6475 57.1505C69.4937 59.5098 63.1218 70.5109 58.285 80.8332C54.1352 83.0408 48.1523 81.1031 47.4363 80.858C46.7204 81.1031 40.7374 83.0408 36.5877 80.8332C32.5559 70.6472 26.1444 59.6349 8.22517 57.1505L10.636 55.4488L5.38892 51.3362L19.6133 27.4894L11.9974 6.2714Z" fill="url(#paint0_linear_8_2499)"/>
<path fill-rule="evenodd" clip-rule="evenodd" d="M19.6133 27.4894L5.38892 51.3362L10.636 55.4488L8.22517 57.1505C24.1455 59.3577 35.1695 77.7133 35.1695 77.7133C35.1695 77.7133 36.5348 78.8155 37.5804 79.1315C40.6456 80.0578 44.3268 78.4622 45.5219 75.5862C45.8681 74.0856 46.0891 72.7812 46.0891 71.19C46.1296 70.9162 46.0511 70.7242 46.0891 70.4809C45.7066 70.2465 44.9904 69.6939 44.4632 69.4064C43.8591 68.9227 43.6537 65.8819 43.5365 65.6593C43.1384 65.5762 42.579 67.7375 42.5438 67.9801C42.2048 67.6682 42.0496 67.3857 41.6675 67.0977C41.0305 66.6176 40.3438 66.1 39.6416 65.3096C41.2912 64.1265 42.7668 63.2542 44.2017 62.7171C40.2201 62.6935 37.8754 63.0769 33.5471 64.2733C36.9631 61.8522 39.452 60.8176 44.8886 59.5613C43.1595 57.6236 35.6393 52.6444 18.4357 48.5477C22.2343 33.8885 28.706 25.1778 40.133 15.5994C37.2343 10.4936 25.1154 6.34124 17.1594 4.25444C-0.141772 -0.283519 18.4357 20.7046 19.6133 27.4894ZM42.5438 67.9801C42.5399 68.0068 42.7514 68.0032 42.7614 67.9801H42.5438Z" fill="url(#paint1_linear_8_2499)"/>
<path d="M50.9108 12.7633L40.2748 20.4211C42.5738 17.6954 23.2388 7.03603 23.2573 4.96349C24.7591 3.02217 40.3115 9.30633 50.9108 12.7633Z" fill="url(#paint2_linear_8_2499)"/>
<path d="M56.7251 81.9677C56.7251 85.0222 52.5346 87.4984 47.3654 87.4984C42.1963 87.4984 38.0058 85.0222 38.0058 81.9677C38.0058 78.9132 42.1963 78.8478 47.3654 78.8478C52.5346 78.8478 56.7251 78.9132 56.7251 81.9677Z" fill="url(#paint3_linear_8_2499)"/>
<path d="M53.6051 45.5218C53.6051 46.7252 55.5905 45.9472 57.8595 46.5145C60.1285 47.0817 59.8449 46.9675 64.6665 47.5072C69.4881 48.0469 72.1825 43.2678 72.1825 41.1531C72.1825 39.0385 67.9282 38.8566 64.0992 38.8566C59.0084 38.8566 55.3069 42.9967 53.6051 45.5218Z" fill="black"/>
<path d="M55.9264 44.7694C65.0695 47.0457 68.5419 46.5001 70.7644 41.1531C65.4478 38.9629 59.6791 40.4104 55.9264 44.7694Z" fill="white"/>
<path d="M60.1227 43.0978C60.1937 45.2897 62.0281 47.0089 64.22 46.9379C66.4118 46.8669 68.1311 45.0325 68.0601 42.8407C67.9891 40.6488 66.1547 38.9296 63.9628 39.0006C61.771 39.0716 60.0517 40.906 60.1227 43.0978Z" fill="black"/>
<path d="M63.0305 55.2642C64.0333 45.8628 63.3582 40.6207 60.3085 31.3152C66.3858 40.2094 67.0055 45.4658 63.0305 55.2642Z" fill="black"/>
<path d="M62.6812 40.4166C63.4899 40.2024 64.0948 40.1349 64.9502 40.1329C65.4583 42.3945 65.5934 43.6659 65.5175 45.9472L63.3903 46.0891C63.3666 43.7592 63.0918 42.4 62.6812 40.4166Z" fill="url(#paint4_linear_8_2499)"/>
<path d="M18.3448 12.8854C18.3695 9.66787 18.3811 8.1688 15.7206 11.507C10.1948 18.4405 11.8693 23.923 15.666 33.9723C15.6966 33.8605 15.7273 33.7499 15.7582 33.6403L15.7178 33.971L22.135 24.0216C20.043 20.6984 18.3141 16.8698 18.3448 12.8854Z" fill="black"/>
<path d="M25.34 17.2135C26.0579 16.7627 26.7413 16.5873 25.9107 18.4496C25.0802 20.3119 19.8006 27.689 19.8006 27.689C19.8006 27.689 18.3917 27.2708 17.9249 26.4632C16.4822 23.9667 24.6221 17.6643 25.34 17.2135Z" fill="black"/>
<path d="M73.2759 12.839C72.8326 9.65212 72.626 8.1673 75.6984 11.1308C82.0796 17.2861 81.133 22.9399 78.6766 33.3979C78.6318 33.291 78.5869 33.1854 78.542 33.0807L78.6251 33.4034L70.9674 24.3738C72.6091 20.8066 73.8249 16.7856 73.2759 12.839Z" fill="black"/>
<path d="M66.9035 18.0408C66.133 17.6873 65.4327 17.6024 66.4986 19.3407C67.5644 21.0791 73.7594 27.7062 73.7594 27.7062C73.7594 27.7062 75.1019 27.1082 75.4595 26.2466C76.565 23.5837 67.674 18.3943 66.9035 18.0408Z" fill="black"/>
<path d="M42.1183 45.5218C42.1183 46.7251 40.133 45.9472 37.864 46.5144C35.595 47.0817 35.8786 46.9674 31.057 47.5071C26.2353 48.0468 23.5409 43.2678 23.5409 41.1531C23.5409 39.0384 27.7953 38.8566 31.6242 38.8566C36.7151 38.8566 40.4166 42.9967 42.1183 45.5218Z" fill="black"/>
<path d="M39.7971 44.7693C30.654 47.0456 27.1816 46.5001 24.959 41.1531C30.2756 38.9629 36.0443 40.4104 39.7971 44.7693Z" fill="white"/>
<path d="M35.8786 43.1109C35.8786 45.3039 34.1008 47.0817 31.9078 47.0817C29.7148 47.0817 27.9371 45.3039 27.9371 43.1109C27.9371 40.918 29.7148 39.1402 31.9078 39.1402C34.1008 39.1402 35.8786 40.918 35.8786 43.1109Z" fill="black"/>
<path d="M37.7873 41.7494C35.0029 39.8707 33.6921 38.6013 32.0498 35.7367" stroke="black" stroke-width="1.1345" stroke-linecap="round"/>
<path d="M27.9822 49.8707C25.8814 47.2499 25.0068 45.6485 24.2893 42.4254" stroke="black" stroke-width="1.1345" stroke-linecap="round"/>
<path d="M47.3654 66.6519C47.3654 66.6519 47.3654 74.69 47.3654 79.8404C51.5232 80.0486 51.9111 82.3931 51.9111 82.3931C51.9111 82.3931 58.2045 81.718 58.5686 81.4004C59.3076 80.6611 60.3181 78.1147 60.4122 77.0042C60.0964 77.1266 59.3006 78.5372 57.2923 78.8478C53.9635 79.4635 50.2622 78.3203 49.0672 75.4443C47.7909 69.9136 49.4044 67.8707 47.3654 66.6519Z" fill="black"/>
<path d="M47.3654 66.6519C47.3654 66.6519 47.3654 74.69 47.3654 79.8404C43.4462 79.9566 42.8197 82.3931 42.8197 82.3931C42.8197 82.3931 36.5263 81.718 36.1622 81.4004C35.4233 80.6611 34.4127 78.1147 34.3187 77.0042C34.9638 77.2933 35.9505 78.6905 37.4385 78.9896C40.7673 79.6053 44.3268 78.3203 45.5219 75.4443C46.7982 69.9136 45.3264 67.8707 47.3654 66.6519Z" fill="black"/>
<path d="M47.3654 71.4384C48.5411 70.5577 49.5406 69.8656 50.4853 69.2692C50.9444 68.95 50.6823 66.0577 50.9107 65.7659C51.3159 65.4133 52.1821 67.8854 52.3289 67.7766C53.2738 66.9544 54.2104 66.0477 55.3069 64.9151C48.5782 60.8958 44.9922 61.3467 39.4239 65.3405C40.551 66.6089 41.6379 67.1748 42.5438 68.0109C42.443 68.2443 43.0945 65.6737 43.5365 65.7659C43.6536 65.9885 43.6414 68.9535 44.2455 69.4372C45.8337 70.3033 46.658 70.8864 47.3654 71.4384Z" fill="black"/>
<path d="M38.5016 85.0614C38.8098 82.897 38.7912 83.1156 38.7446 82.0391C38.6811 81.3471 38.6056 80.4509 38.5726 80.1225C38.3624 78.0269 41.4851 80.2457 43.3365 80.1705C44.9947 80.0509 37.7826 90.8579 38.5016 85.0614Z" fill="black"/>
<path d="M56.2292 85.0614C55.921 82.897 55.9397 83.1156 55.9862 82.0391C56.0498 81.3471 56.1253 80.4509 56.1582 80.1225C56.3684 78.0269 53.2457 80.2457 51.3943 80.1705C49.7361 80.0509 56.9483 90.8579 56.2292 85.0614Z" fill="black"/>
<path d="M37.8806 84.1825C38.0424 83.0657 38.0334 83.1786 37.9971 82.6214C37.9542 82.263 37.9026 81.7989 37.8806 81.6288C37.7403 80.5431 39.5821 81.7169 40.6624 81.6936C41.6295 81.6456 37.5095 87.1744 37.8806 84.1825Z" fill="white"/>
<path d="M56.8665 84.1825C56.7048 83.0657 56.7138 83.1786 56.75 82.6214C56.793 82.263 56.8446 81.7989 56.8665 81.6288C57.0069 80.5431 55.1651 81.7169 54.0848 81.6936C53.1177 81.6456 57.2377 87.1744 56.8665 84.1825Z" fill="white"/>
<defs>
<linearGradient id="paint0_linear_8_2499" x1="47.4363" y1="3.6181" x2="47.4363" y2="87.4984" gradientUnits="userSpaceOnUse">
<stop stop-color="white"/>
<stop offset="1" stop-color="#E3F4FD"/>
</linearGradient>
<linearGradient id="paint1_linear_8_2499" x1="47.4363" y1="3.6181" x2="47.4363" y2="87.4984" gradientUnits="userSpaceOnUse">
<stop stop-color="white"/>
<stop offset="1" stop-color="#A7C4D8"/>
</linearGradient>
<linearGradient id="paint2_linear_8_2499" x1="47.4363" y1="3.6181" x2="47.4363" y2="87.4984" gradientUnits="userSpaceOnUse">
<stop stop-color="white"/>
<stop offset="1" stop-color="#E3F4FD"/>
</linearGradient>
<linearGradient id="paint3_linear_8_2499" x1="47.4363" y1="3.6181" x2="47.4363" y2="87.4984" gradientUnits="userSpaceOnUse">
<stop stop-color="white"/>
<stop offset="1" stop-color="#A7C4D8"/>
</linearGradient>
<linearGradient id="paint4_linear_8_2499" x1="64.1092" y1="40.1329" x2="64.1092" y2="46.0891" gradientUnits="userSpaceOnUse">
<stop stop-color="white"/>
<stop offset="1" stop-color="#A5C2D7"/>
</linearGradient>
</defs>
</svg>
