<svg width="2400" height="860" viewBox="1280 120 2400 860" fill="none" xmlns="http://www.w3.org/2000/svg">
<line x1="1322.13" y1="651.65" x2="3650.88" y2="661.143" stroke="white" stroke-width="23.732"/>
<path fill-rule="evenodd" clip-rule="evenodd" d="M1914.31 529.064C1915.74 531.773 1915.08 535.123 1912.68 537.014C1879 563.443 1836.98 579.131 1791.42 579.131C1680.67 579.131 1590.89 486.457 1590.89 372.138C1590.89 257.818 1680.67 165.144 1791.42 165.144C1837.21 165.144 1879.41 180.987 1913.17 207.652C1915.58 209.555 1916.23 212.917 1914.78 215.623L1875.17 289.558C1873.26 293.126 1868.58 294.069 1865.23 291.796C1849.71 281.265 1830.98 275.112 1810.81 275.112C1757.23 275.112 1713.78 318.553 1713.78 372.14C1713.78 425.727 1757.23 469.168 1810.81 469.168C1830.95 469.168 1849.66 463.032 1865.16 452.528C1868.53 450.249 1873.23 451.213 1875.12 454.806L1914.31 529.064ZM1388.61 196.926C1388.1 193.609 1390.2 190.398 1393.47 189.621C1442.68 177.911 1475.81 175.027 1534.44 174.854C1537.5 174.845 1540.16 177.029 1540.78 180.027C1569.84 320.943 1567.62 413.598 1540.62 561.23C1540.09 564.13 1537.65 566.34 1534.71 566.539C1489.35 569.609 1461.67 569.52 1416.65 566.612C1413.14 566.385 1410.46 563.346 1410.6 559.837C1416.53 417.085 1410.19 336.712 1388.61 196.926ZM1950.95 178.09C1947.37 178.09 1944.48 180.986 1944.48 184.559V566.203C1944.48 569.776 1947.37 572.672 1950.95 572.672L2222.62 572.672C2226.2 572.672 2229.09 569.776 2229.09 566.203V475.644C2229.09 472.071 2226.2 469.175 2222.62 469.175L2073.85 469.175C2070.28 469.175 2067.38 466.279 2067.38 462.706V423.895C2067.38 420.323 2070.28 417.427 2073.85 417.427H2177.76C2181.17 417.427 2183.99 414.786 2184.22 411.388L2189.82 327.297C2190.07 323.564 2187.11 320.398 2183.37 320.398H2073.85C2070.28 320.398 2067.38 317.502 2067.38 313.93V278.353C2067.38 274.78 2070.28 271.884 2073.85 271.884H2216.16C2219.73 271.884 2222.62 268.988 2222.62 265.416V184.559C2222.62 180.986 2219.73 178.09 2216.16 178.09L1950.95 178.09ZM2312.72 184.548C2312.72 180.975 2315.61 178.079 2319.19 178.079L2425.92 178.079C2429.49 178.079 2432.39 180.975 2432.39 184.547V452.992C2432.39 456.565 2435.28 459.461 2438.85 459.461H2539.12C2542.69 459.461 2545.59 462.357 2545.59 465.93V566.192C2545.59 569.765 2542.69 572.661 2539.12 572.661H2319.19C2315.61 572.661 2312.72 569.765 2312.72 566.192V184.548ZM2688.72 178.09C2685.91 178.09 2683.42 179.909 2682.56 182.589L2560.56 564.234C2559.22 568.408 2562.34 572.672 2566.72 572.672H2679.18C2682.04 572.672 2684.56 570.795 2685.38 568.055L2752.32 343.942C2754.15 337.824 2762.79 337.772 2764.69 343.868L2834.59 568.128C2835.43 570.831 2837.94 572.672 2840.77 572.672H2950.12C2954.48 572.672 2957.59 568.444 2956.3 564.28L2837.42 182.635C2836.58 179.932 2834.08 178.09 2831.25 178.09H2688.72ZM2970.79 182.836L3174.55 182.836C3300.98 188.035 3299.49 357.085 3231.15 376.893C3316.86 402.767 3307.16 570.949 3174.55 570.949H2970.79V182.836ZM3087.25 286.333H3139C3149.95 286.029 3164.87 321.911 3139 334.848L3087.25 334.848V286.333ZM3142.23 415.698H3087.25V470.683H3142.23C3171.34 464.212 3171.34 422.167 3142.23 415.698ZM3577.59 218.724C3578.94 215.815 3577.96 212.348 3575.25 210.64C3462.15 139.477 3298.56 147.828 3298.56 297.751C3300.84 335.631 3308.05 355.119 3336.53 384.214C3337.08 384.779 3337.74 385.244 3338.46 385.571L3443.65 433.383C3443.95 433.521 3444.25 433.688 3444.53 433.875C3465.83 448.191 3459.54 467.612 3440.87 469.168C3404.26 472.218 3381.91 463.914 3349.76 446.531C3346.53 444.783 3342.47 446.034 3340.83 449.322L3301.02 528.93C3299.6 531.768 3300.45 535.225 3303.05 537.044C3344.98 566.374 3375.59 574.856 3437.64 575.899C3531.43 575.899 3580.49 533.853 3579.94 449.762C3579.72 415.362 3573.16 396.898 3547.6 365.671C3539.1 355.466 3514.63 345.852 3488.09 335.426C3465.12 326.404 3440.61 316.773 3423.56 305.627C3422.19 304.731 3421.23 303.246 3420.96 301.632C3412.64 251.916 3502.87 287.062 3531.73 301.043C3535.12 302.688 3539.26 301.295 3540.84 297.873L3577.59 218.724Z" fill="white"/>
<mask id="path-15-outside-1_216_6403" maskUnits="userSpaceOnUse" x="1726.84" y="722.169" width="1519" height="211" fill="black">
<rect fill="white" x="1726.84" y="722.169" width="1519" height="211"/>
<path d="M1873.02 737.233V917.893H1872.24C1871.73 917.893 1871.25 917.592 1870.82 916.99L1742.3 742.008C1742.38 742.61 1742.42 743.169 1742.42 743.686C1742.42 744.202 1742.42 744.718 1742.42 745.234V917.893H1739.84V737.233H1740.88C1741.65 737.233 1742.25 737.578 1742.68 738.266L1870.56 912.344C1870.48 911.914 1870.43 911.484 1870.43 911.054C1870.43 910.538 1870.43 910.065 1870.43 909.635V737.233H1873.02Z"/>
<path d="M2021.69 917.377C2031.41 917.377 2040.1 915.657 2047.75 912.215C2055.49 908.688 2062.03 903.914 2067.37 897.892C2072.7 891.87 2076.79 884.815 2079.63 876.729C2082.46 868.642 2083.88 859.996 2083.88 850.791V737.233H2086.98V850.791C2086.98 860.34 2085.48 869.33 2082.46 877.761C2079.45 886.192 2075.11 893.547 2069.43 899.827C2063.75 906.107 2056.87 911.097 2048.78 914.796C2040.78 918.409 2031.75 920.216 2021.69 920.216C2011.62 920.216 2002.54 918.409 1994.46 914.796C1986.46 911.097 1979.62 906.107 1973.94 899.827C1968.26 893.547 1963.92 886.192 1960.91 877.761C1957.89 869.33 1956.39 860.34 1956.39 850.791V737.233H1959.49V850.533C1959.49 859.738 1960.91 868.427 1963.74 876.6C1966.58 884.686 1970.67 891.784 1976 897.892C1981.34 903.914 1987.83 908.688 1995.49 912.215C2003.23 915.657 2011.96 917.377 2021.69 917.377Z"/>
<path d="M2283.44 740.072H2215.57V917.893H2212.47V740.072H2144.08V737.233H2283.44V740.072Z"/>
<path d="M2346.11 828.08H2382.5C2391.37 828.08 2399.32 827.047 2406.38 824.983C2413.52 822.832 2419.58 819.821 2424.57 815.95C2429.65 811.992 2433.52 807.218 2436.19 801.626C2438.94 795.948 2440.32 789.539 2440.32 782.398C2440.32 767.688 2435.54 756.934 2425.99 750.138C2416.44 743.255 2402.72 739.814 2384.83 739.814H2346.11V828.08ZM2459.67 917.893H2457.61C2456.92 917.893 2456.36 917.85 2455.93 917.764C2455.5 917.592 2454.94 917.119 2454.25 916.345L2386.63 835.306C2385.95 834.446 2385.21 833.714 2384.44 833.112C2383.75 832.51 2382.93 832.037 2381.99 831.693C2381.13 831.263 2380.05 831.005 2378.76 830.919C2377.56 830.746 2376.05 830.66 2374.25 830.66H2346.11V917.893H2343.02V737.233H2384.83C2403.67 737.233 2418.12 740.89 2428.19 748.202C2438.34 755.515 2443.41 766.913 2443.41 782.398C2443.41 789.711 2441.99 796.335 2439.15 802.271C2436.32 808.121 2432.32 813.111 2427.15 817.24C2421.99 821.369 2415.8 824.595 2408.57 826.918C2401.43 829.241 2393.52 830.488 2384.83 830.66C2385.69 831.005 2386.46 831.478 2387.15 832.08C2387.84 832.596 2388.53 833.241 2389.21 834.016L2459.67 917.893Z"/>
<path d="M2524.41 917.893H2521.31V737.233H2524.41V917.893Z"/>
<path d="M2723.3 740.072H2655.42V917.893H2652.32V740.072H2583.93V737.233H2723.3V740.072Z"/>
<path d="M2785.97 917.893H2782.87V737.233H2785.97V917.893Z"/>
<path d="M3026.41 827.563C3026.41 841.844 3024.35 854.662 3020.22 866.018C3016.17 877.374 3010.45 887.052 3003.05 895.053C2995.74 902.967 2986.97 909.075 2976.73 913.377C2966.49 917.592 2955.18 919.7 2942.79 919.7C2930.49 919.7 2919.22 917.592 2908.98 913.377C2898.83 909.075 2890.06 902.967 2882.66 895.053C2875.35 887.052 2869.62 877.374 2865.5 866.018C2861.45 854.662 2859.43 841.844 2859.43 827.563C2859.43 813.369 2861.45 800.593 2865.5 789.238C2869.62 777.796 2875.35 768.075 2882.66 760.074C2890.06 752.073 2898.83 745.922 2908.98 741.621C2919.22 737.32 2930.49 735.169 2942.79 735.169C2955.18 735.169 2966.49 737.32 2976.73 741.621C2986.97 745.836 2995.74 751.944 3003.05 759.945C3010.45 767.946 3016.17 777.667 3020.22 789.109C3024.35 800.464 3026.41 813.283 3026.41 827.563ZM3023.06 827.563C3023.06 813.541 3021.08 800.981 3017.12 789.883C3013.25 778.785 3007.79 769.365 3000.73 761.623C2993.68 753.88 2985.2 747.987 2975.31 743.944C2965.5 739.814 2954.66 737.75 2942.79 737.75C2931.09 737.75 2920.34 739.814 2910.53 743.944C2900.72 747.987 2892.25 753.88 2885.11 761.623C2878.06 769.365 2872.51 778.785 2868.46 789.883C2864.51 800.981 2862.53 813.541 2862.53 827.563C2862.53 841.586 2864.51 854.146 2868.46 865.244C2872.51 876.256 2878.06 885.633 2885.11 893.375C2892.25 901.032 2900.72 906.925 2910.53 911.054C2920.34 915.097 2931.09 917.119 2942.79 917.119C2954.66 917.119 2965.5 915.097 2975.31 911.054C2985.2 906.925 2993.68 901.032 3000.73 893.375C3007.79 885.633 3013.25 876.256 3017.12 865.244C3021.08 854.146 3023.06 841.586 3023.06 827.563Z"/>
<path d="M3233.06 737.233V917.893H3232.28C3231.76 917.893 3231.29 917.592 3230.86 916.99L3102.33 742.008C3102.42 742.61 3102.46 743.169 3102.46 743.686C3102.46 744.202 3102.46 744.718 3102.46 745.234V917.893H3099.88V737.233H3100.92C3101.69 737.233 3102.29 737.578 3102.72 738.266L3230.6 912.344C3230.52 911.914 3230.47 911.484 3230.47 911.054C3230.47 910.538 3230.47 910.065 3230.47 909.635V737.233H3233.06Z"/>
</mask>
<path d="M1873.02 737.233V917.893H1872.24C1871.73 917.893 1871.25 917.592 1870.82 916.99L1742.3 742.008C1742.38 742.61 1742.42 743.169 1742.42 743.686C1742.42 744.202 1742.42 744.718 1742.42 745.234V917.893H1739.84V737.233H1740.88C1741.65 737.233 1742.25 737.578 1742.68 738.266L1870.56 912.344C1870.48 911.914 1870.43 911.484 1870.43 911.054C1870.43 910.538 1870.43 910.065 1870.43 909.635V737.233H1873.02Z" fill="white"/>
<path d="M2021.69 917.377C2031.41 917.377 2040.1 915.657 2047.75 912.215C2055.49 908.688 2062.03 903.914 2067.37 897.892C2072.7 891.87 2076.79 884.815 2079.63 876.729C2082.46 868.642 2083.88 859.996 2083.88 850.791V737.233H2086.98V850.791C2086.98 860.34 2085.48 869.33 2082.46 877.761C2079.45 886.192 2075.11 893.547 2069.43 899.827C2063.75 906.107 2056.87 911.097 2048.78 914.796C2040.78 918.409 2031.75 920.216 2021.69 920.216C2011.62 920.216 2002.54 918.409 1994.46 914.796C1986.46 911.097 1979.62 906.107 1973.94 899.827C1968.26 893.547 1963.92 886.192 1960.91 877.761C1957.89 869.33 1956.39 860.34 1956.39 850.791V737.233H1959.49V850.533C1959.49 859.738 1960.91 868.427 1963.74 876.6C1966.58 884.686 1970.67 891.784 1976 897.892C1981.34 903.914 1987.83 908.688 1995.49 912.215C2003.23 915.657 2011.96 917.377 2021.69 917.377Z" fill="white"/>
<path d="M2283.44 740.072H2215.57V917.893H2212.47V740.072H2144.08V737.233H2283.44V740.072Z" fill="white"/>
<path d="M2346.11 828.08H2382.5C2391.37 828.08 2399.32 827.047 2406.38 824.983C2413.52 822.832 2419.58 819.821 2424.57 815.95C2429.65 811.992 2433.52 807.218 2436.19 801.626C2438.94 795.948 2440.32 789.539 2440.32 782.398C2440.32 767.688 2435.54 756.934 2425.99 750.138C2416.44 743.255 2402.72 739.814 2384.83 739.814H2346.11V828.08ZM2459.67 917.893H2457.61C2456.92 917.893 2456.36 917.85 2455.93 917.764C2455.5 917.592 2454.94 917.119 2454.25 916.345L2386.63 835.306C2385.95 834.446 2385.21 833.714 2384.44 833.112C2383.75 832.51 2382.93 832.037 2381.99 831.693C2381.13 831.263 2380.05 831.005 2378.76 830.919C2377.56 830.746 2376.05 830.66 2374.25 830.66H2346.11V917.893H2343.02V737.233H2384.83C2403.67 737.233 2418.12 740.89 2428.19 748.202C2438.34 755.515 2443.41 766.913 2443.41 782.398C2443.41 789.711 2441.99 796.335 2439.15 802.271C2436.32 808.121 2432.32 813.111 2427.15 817.24C2421.99 821.369 2415.8 824.595 2408.57 826.918C2401.43 829.241 2393.52 830.488 2384.83 830.66C2385.69 831.005 2386.46 831.478 2387.15 832.08C2387.84 832.596 2388.53 833.241 2389.21 834.016L2459.67 917.893Z" fill="white"/>
<path d="M2524.41 917.893H2521.31V737.233H2524.41V917.893Z" fill="white"/>
<path d="M2723.3 740.072H2655.42V917.893H2652.32V740.072H2583.93V737.233H2723.3V740.072Z" fill="white"/>
<path d="M2785.97 917.893H2782.87V737.233H2785.97V917.893Z" fill="white"/>
<path d="M3026.41 827.563C3026.41 841.844 3024.35 854.662 3020.22 866.018C3016.17 877.374 3010.45 887.052 3003.05 895.053C2995.74 902.967 2986.97 909.075 2976.73 913.377C2966.49 917.592 2955.18 919.7 2942.79 919.7C2930.49 919.7 2919.22 917.592 2908.98 913.377C2898.83 909.075 2890.06 902.967 2882.66 895.053C2875.35 887.052 2869.62 877.374 2865.5 866.018C2861.45 854.662 2859.43 841.844 2859.43 827.563C2859.43 813.369 2861.45 800.593 2865.5 789.238C2869.62 777.796 2875.35 768.075 2882.66 760.074C2890.06 752.073 2898.83 745.922 2908.98 741.621C2919.22 737.32 2930.49 735.169 2942.79 735.169C2955.18 735.169 2966.49 737.32 2976.73 741.621C2986.97 745.836 2995.74 751.944 3003.05 759.945C3010.45 767.946 3016.17 777.667 3020.22 789.109C3024.35 800.464 3026.41 813.283 3026.41 827.563ZM3023.06 827.563C3023.06 813.541 3021.08 800.981 3017.12 789.883C3013.25 778.785 3007.79 769.365 3000.73 761.623C2993.68 753.88 2985.2 747.987 2975.31 743.944C2965.5 739.814 2954.66 737.75 2942.79 737.75C2931.09 737.75 2920.34 739.814 2910.53 743.944C2900.72 747.987 2892.25 753.88 2885.11 761.623C2878.06 769.365 2872.51 778.785 2868.46 789.883C2864.51 800.981 2862.53 813.541 2862.53 827.563C2862.53 841.586 2864.51 854.146 2868.46 865.244C2872.51 876.256 2878.06 885.633 2885.11 893.375C2892.25 901.032 2900.72 906.925 2910.53 911.054C2920.34 915.097 2931.09 917.119 2942.79 917.119C2954.66 917.119 2965.5 915.097 2975.31 911.054C2985.2 906.925 2993.68 901.032 3000.73 893.375C3007.79 885.633 3013.25 876.256 3017.12 865.244C3021.08 854.146 3023.06 841.586 3023.06 827.563Z" fill="white"/>
<path d="M3233.06 737.233V917.893H3232.28C3231.76 917.893 3231.29 917.592 3230.86 916.99L3102.33 742.008C3102.42 742.61 3102.46 743.169 3102.46 743.686C3102.46 744.202 3102.46 744.718 3102.46 745.234V917.893H3099.88V737.233H3100.92C3101.69 737.233 3102.29 737.578 3102.72 738.266L3230.6 912.344C3230.52 911.914 3230.47 911.484 3230.47 911.054C3230.47 910.538 3230.47 910.065 3230.47 909.635V737.233H3233.06Z" fill="white"/>
<path d="M1873.02 737.233V917.893H1872.24C1871.73 917.893 1871.25 917.592 1870.82 916.99L1742.3 742.008C1742.38 742.61 1742.42 743.169 1742.42 743.686C1742.42 744.202 1742.42 744.718 1742.42 745.234V917.893H1739.84V737.233H1740.88C1741.65 737.233 1742.25 737.578 1742.68 738.266L1870.56 912.344C1870.48 911.914 1870.43 911.484 1870.43 911.054C1870.43 910.538 1870.43 910.065 1870.43 909.635V737.233H1873.02Z" stroke="white" stroke-width="24.088" mask="url(#path-15-outside-1_216_6403)"/>
<path d="M2021.69 917.377C2031.41 917.377 2040.1 915.657 2047.75 912.215C2055.49 908.688 2062.03 903.914 2067.37 897.892C2072.7 891.87 2076.79 884.815 2079.63 876.729C2082.46 868.642 2083.88 859.996 2083.88 850.791V737.233H2086.98V850.791C2086.98 860.34 2085.48 869.33 2082.46 877.761C2079.45 886.192 2075.11 893.547 2069.43 899.827C2063.75 906.107 2056.87 911.097 2048.78 914.796C2040.78 918.409 2031.75 920.216 2021.69 920.216C2011.62 920.216 2002.54 918.409 1994.46 914.796C1986.46 911.097 1979.62 906.107 1973.94 899.827C1968.26 893.547 1963.92 886.192 1960.91 877.761C1957.89 869.33 1956.39 860.34 1956.39 850.791V737.233H1959.49V850.533C1959.49 859.738 1960.91 868.427 1963.74 876.6C1966.58 884.686 1970.67 891.784 1976 897.892C1981.34 903.914 1987.83 908.688 1995.49 912.215C2003.23 915.657 2011.96 917.377 2021.69 917.377Z" stroke="white" stroke-width="24.088" mask="url(#path-15-outside-1_216_6403)"/>
<path d="M2283.44 740.072H2215.57V917.893H2212.47V740.072H2144.08V737.233H2283.44V740.072Z" stroke="white" stroke-width="24.088" mask="url(#path-15-outside-1_216_6403)"/>
<path d="M2346.11 828.08H2382.5C2391.37 828.08 2399.32 827.047 2406.38 824.983C2413.52 822.832 2419.58 819.821 2424.57 815.95C2429.65 811.992 2433.52 807.218 2436.19 801.626C2438.94 795.948 2440.32 789.539 2440.32 782.398C2440.32 767.688 2435.54 756.934 2425.99 750.138C2416.44 743.255 2402.72 739.814 2384.83 739.814H2346.11V828.08ZM2459.67 917.893H2457.61C2456.92 917.893 2456.36 917.85 2455.93 917.764C2455.5 917.592 2454.94 917.119 2454.25 916.345L2386.63 835.306C2385.95 834.446 2385.21 833.714 2384.44 833.112C2383.75 832.51 2382.93 832.037 2381.99 831.693C2381.13 831.263 2380.05 831.005 2378.76 830.919C2377.56 830.746 2376.05 830.66 2374.25 830.66H2346.11V917.893H2343.02V737.233H2384.83C2403.67 737.233 2418.12 740.89 2428.19 748.202C2438.34 755.515 2443.41 766.913 2443.41 782.398C2443.41 789.711 2441.99 796.335 2439.15 802.271C2436.32 808.121 2432.32 813.111 2427.15 817.24C2421.99 821.369 2415.8 824.595 2408.57 826.918C2401.43 829.241 2393.52 830.488 2384.83 830.66C2385.69 831.005 2386.46 831.478 2387.15 832.08C2387.84 832.596 2388.53 833.241 2389.21 834.016L2459.67 917.893Z" stroke="white" stroke-width="24.088" mask="url(#path-15-outside-1_216_6403)"/>
<path d="M2524.41 917.893H2521.31V737.233H2524.41V917.893Z" stroke="white" stroke-width="24.088" mask="url(#path-15-outside-1_216_6403)"/>
<path d="M2723.3 740.072H2655.42V917.893H2652.32V740.072H2583.93V737.233H2723.3V740.072Z" stroke="white" stroke-width="24.088" mask="url(#path-15-outside-1_216_6403)"/>
<path d="M2785.97 917.893H2782.87V737.233H2785.97V917.893Z" stroke="white" stroke-width="24.088" mask="url(#path-15-outside-1_216_6403)"/>
<path d="M3026.41 827.563C3026.41 841.844 3024.35 854.662 3020.22 866.018C3016.17 877.374 3010.45 887.052 3003.05 895.053C2995.74 902.967 2986.97 909.075 2976.73 913.377C2966.49 917.592 2955.18 919.7 2942.79 919.7C2930.49 919.7 2919.22 917.592 2908.98 913.377C2898.83 909.075 2890.06 902.967 2882.66 895.053C2875.35 887.052 2869.62 877.374 2865.5 866.018C2861.45 854.662 2859.43 841.844 2859.43 827.563C2859.43 813.369 2861.45 800.593 2865.5 789.238C2869.62 777.796 2875.35 768.075 2882.66 760.074C2890.06 752.073 2898.83 745.922 2908.98 741.621C2919.22 737.32 2930.49 735.169 2942.79 735.169C2955.18 735.169 2966.49 737.32 2976.73 741.621C2986.97 745.836 2995.74 751.944 3003.05 759.945C3010.45 767.946 3016.17 777.667 3020.22 789.109C3024.35 800.464 3026.41 813.283 3026.41 827.563ZM3023.06 827.563C3023.06 813.541 3021.08 800.981 3017.12 789.883C3013.25 778.785 3007.79 769.365 3000.73 761.623C2993.68 753.88 2985.2 747.987 2975.31 743.944C2965.5 739.814 2954.66 737.75 2942.79 737.75C2931.09 737.75 2920.34 739.814 2910.53 743.944C2900.72 747.987 2892.25 753.88 2885.11 761.623C2878.06 769.365 2872.51 778.785 2868.46 789.883C2864.51 800.981 2862.53 813.541 2862.53 827.563C2862.53 841.586 2864.51 854.146 2868.46 865.244C2872.51 876.256 2878.06 885.633 2885.11 893.375C2892.25 901.032 2900.72 906.925 2910.53 911.054C2920.34 915.097 2931.09 917.119 2942.79 917.119C2954.66 917.119 2965.5 915.097 2975.31 911.054C2985.2 906.925 2993.68 901.032 3000.73 893.375C3007.79 885.633 3013.25 876.256 3017.12 865.244C3021.08 854.146 3023.06 841.586 3023.06 827.563Z" stroke="white" stroke-width="24.088" mask="url(#path-15-outside-1_216_6403)"/>
<path d="M3233.06 737.233V917.893H3232.28C3231.76 917.893 3231.29 917.592 3230.86 916.99L3102.33 742.008C3102.42 742.61 3102.46 743.169 3102.46 743.686C3102.46 744.202 3102.46 744.718 3102.46 745.234V917.893H3099.88V737.233H3100.92C3101.69 737.233 3102.29 737.578 3102.72 738.266L3230.6 912.344C3230.52 911.914 3230.47 911.484 3230.47 911.054C3230.47 910.538 3230.47 910.065 3230.47 909.635V737.233H3233.06Z" stroke="white" stroke-width="24.088" mask="url(#path-15-outside-1_216_6403)"/>
<defs>
<linearGradient id="paint0_linear_216_6403" x1="556.465" y1="43.3179" x2="556.465" y2="1027.15" gradientUnits="userSpaceOnUse">
<stop stop-color="white"/>
<stop offset="0.775" stop-color="#B8DEF2"/>
</linearGradient>
<linearGradient id="paint1_linear_216_6403" x1="556.465" y1="43.3179" x2="556.465" y2="1027.15" gradientUnits="userSpaceOnUse">
<stop stop-color="#F3FBFF"/>
<stop offset="0.535" stop-color="#A7C4D8"/>
</linearGradient>
<linearGradient id="paint2_linear_216_6403" x1="556.465" y1="43.3179" x2="556.465" y2="1027.15" gradientUnits="userSpaceOnUse">
<stop stop-color="white"/>
<stop offset="0.775" stop-color="#B8DEF2"/>
</linearGradient>
<linearGradient id="paint3_linear_216_6403" x1="556.465" y1="43.3179" x2="556.465" y2="1027.15" gradientUnits="userSpaceOnUse">
<stop stop-color="#F3FBFF"/>
<stop offset="0.535" stop-color="#A7C4D8"/>
</linearGradient>
<linearGradient id="paint4_linear_216_6403" x1="751.998" y1="471.6" x2="751.998" y2="541.459" gradientUnits="userSpaceOnUse">
<stop stop-color="white"/>
<stop offset="1" stop-color="#A5C2D7"/>
</linearGradient>
</defs>
</svg>
