<svg width="2329" height="768" viewBox="0 0 2329 768" fill="none" xmlns="http://www.w3.org/2000/svg">
<line x1="0.0483695" y1="486.506" x2="2328.8" y2="495.999" stroke="white" stroke-width="23.732"/>
<mask id="path-2-inside-1_817_46" fill="white">
<path d="M469.334 0C515.123 0.000105591 557.327 15.8441 591.083 42.5088C593.492 44.4119 594.138 47.7732 592.688 50.4795L553.082 124.413C551.171 127.981 546.493 128.925 543.144 126.652C527.625 116.121 508.895 109.968 488.728 109.968C435.14 109.968 391.699 153.409 391.699 206.996C391.699 260.583 435.14 304.024 488.728 304.024C508.867 304.024 527.572 297.887 543.078 287.383C546.442 285.104 551.14 286.068 553.036 289.661L592.228 363.918C593.657 366.627 592.997 369.976 590.588 371.867C556.914 398.297 514.9 413.987 469.334 413.987C358.587 413.987 268.809 321.313 268.809 206.994C268.809 92.6747 358.587 0 469.334 0ZM1976.48 132.607C1976.48 -17.3151 2140.07 -25.667 2253.16 45.4961C2255.88 47.2042 2256.86 50.6711 2255.51 53.5801L2218.76 132.729C2217.17 136.15 2213.04 137.544 2209.64 135.899C2180.78 121.918 2090.55 86.7719 2098.87 136.487C2099.14 138.101 2100.11 139.588 2101.48 140.483C2138.22 164.509 2209.65 181.491 2225.51 200.527C2251.07 231.754 2257.63 250.218 2257.86 284.618C2258.4 368.709 2209.34 410.755 2115.55 410.755C2053.51 409.712 2022.89 401.229 1980.97 371.899C1978.37 370.081 1977.52 366.624 1978.94 363.786L2018.74 284.179C2020.38 280.89 2024.44 279.639 2027.67 281.388C2059.83 298.77 2082.18 307.074 2118.78 304.023C2137.45 302.468 2143.74 283.047 2122.44 268.73C2122.17 268.544 2121.86 268.377 2121.56 268.238L2016.38 220.427C2015.66 220.1 2014.99 219.635 2014.44 219.07C1985.96 189.975 1978.75 170.487 1976.48 132.607ZM1509.16 12.9463C1511.99 12.9463 1514.49 14.7879 1515.34 17.4912L1634.21 399.136C1635.51 403.3 1632.4 407.528 1628.03 407.528H1518.68C1515.85 407.528 1513.35 405.687 1512.51 402.984L1442.61 178.725C1440.71 172.629 1432.06 172.68 1430.23 178.798L1363.29 402.911C1362.47 405.651 1359.95 407.528 1357.09 407.528H1244.63C1240.25 407.528 1237.14 403.263 1238.47 399.09L1360.47 17.4453C1361.33 14.7653 1363.82 12.9463 1366.63 12.9463L1509.16 12.9463ZM894.07 12.9463C897.643 12.9463 900.539 15.8426 900.539 19.415V100.271C900.539 103.844 897.643 106.74 894.07 106.74L751.762 106.74C748.189 106.74 745.294 109.637 745.294 113.209V148.786C745.294 152.358 748.19 155.254 751.762 155.254L861.282 155.254C865.024 155.254 867.985 158.42 867.736 162.153L862.13 246.244C861.903 249.642 859.081 252.282 855.676 252.282L751.762 252.282C748.189 252.282 745.294 255.179 745.294 258.751V297.563C745.294 301.135 748.189 304.031 751.762 304.031L900.539 304.031C904.111 304.031 907.008 306.927 907.008 310.499V401.06C907.008 404.632 904.111 407.527 900.539 407.527L628.859 407.527C625.287 407.527 622.392 404.632 622.392 401.06V19.415C622.392 15.8427 625.287 12.9464 628.859 12.9463L894.07 12.9463ZM1103.83 12.9346C1107.4 12.9347 1110.3 15.831 1110.3 19.4033V287.849C1110.3 291.421 1113.2 294.317 1116.77 294.317H1217.03C1220.6 294.317 1223.5 297.213 1223.5 300.785V401.048C1223.5 404.62 1220.6 407.517 1217.03 407.517H997.101C993.528 407.517 990.632 404.62 990.632 401.048V19.4033C990.632 15.831 993.528 12.9347 997.101 12.9346L1103.83 12.9346ZM1852.47 17.6924C1978.89 22.8911 1977.4 191.941 1909.07 211.749C1994.77 237.623 1985.07 405.805 1852.47 405.806L1648.71 405.806V17.6924L1852.47 17.6924ZM212.355 9.70996C215.416 9.70115 218.077 11.885 218.695 14.8828C247.75 155.799 245.531 248.454 218.53 396.086C218 398.985 215.56 401.196 212.619 401.396C167.261 404.465 139.58 404.376 94.5596 401.468C91.0557 401.241 88.371 398.202 88.5166 394.693C94.4432 251.941 88.1023 171.568 66.5225 31.7812C66.0105 28.4647 68.1153 25.2546 71.3799 24.4775C120.591 12.7675 153.725 9.88257 212.355 9.70996ZM1765.16 305.539H1820.14C1849.25 299.068 1849.25 257.023 1820.14 250.555L1765.16 250.555V305.539ZM1765.16 169.704L1816.91 169.704C1842.58 156.868 1828.1 121.445 1817.17 121.189H1765.16V169.704Z"/>
</mask>
<path d="M469.334 0C515.123 0.000105591 557.327 15.8441 591.083 42.5088C593.492 44.4119 594.138 47.7732 592.688 50.4795L553.082 124.413C551.171 127.981 546.493 128.925 543.144 126.652C527.625 116.121 508.895 109.968 488.728 109.968C435.14 109.968 391.699 153.409 391.699 206.996C391.699 260.583 435.14 304.024 488.728 304.024C508.867 304.024 527.572 297.887 543.078 287.383C546.442 285.104 551.14 286.068 553.036 289.661L592.228 363.918C593.657 366.627 592.997 369.976 590.588 371.867C556.914 398.297 514.9 413.987 469.334 413.987C358.587 413.987 268.809 321.313 268.809 206.994C268.809 92.6747 358.587 0 469.334 0ZM1976.48 132.607C1976.48 -17.3151 2140.07 -25.667 2253.16 45.4961C2255.88 47.2042 2256.86 50.6711 2255.51 53.5801L2218.76 132.729C2217.17 136.15 2213.04 137.544 2209.64 135.899C2180.78 121.918 2090.55 86.7719 2098.87 136.487C2099.14 138.101 2100.11 139.588 2101.48 140.483C2138.22 164.509 2209.65 181.491 2225.51 200.527C2251.07 231.754 2257.63 250.218 2257.86 284.618C2258.4 368.709 2209.34 410.755 2115.55 410.755C2053.51 409.712 2022.89 401.229 1980.97 371.899C1978.37 370.081 1977.52 366.624 1978.94 363.786L2018.74 284.179C2020.38 280.89 2024.44 279.639 2027.67 281.388C2059.83 298.77 2082.18 307.074 2118.78 304.023C2137.45 302.468 2143.74 283.047 2122.44 268.73C2122.17 268.544 2121.86 268.377 2121.56 268.238L2016.38 220.427C2015.66 220.1 2014.99 219.635 2014.44 219.07C1985.96 189.975 1978.75 170.487 1976.48 132.607ZM1509.16 12.9463C1511.99 12.9463 1514.49 14.7879 1515.34 17.4912L1634.21 399.136C1635.51 403.3 1632.4 407.528 1628.03 407.528H1518.68C1515.85 407.528 1513.35 405.687 1512.51 402.984L1442.61 178.725C1440.71 172.629 1432.06 172.68 1430.23 178.798L1363.29 402.911C1362.47 405.651 1359.95 407.528 1357.09 407.528H1244.63C1240.25 407.528 1237.14 403.263 1238.47 399.09L1360.47 17.4453C1361.33 14.7653 1363.82 12.9463 1366.63 12.9463L1509.16 12.9463ZM894.07 12.9463C897.643 12.9463 900.539 15.8426 900.539 19.415V100.271C900.539 103.844 897.643 106.74 894.07 106.74L751.762 106.74C748.189 106.74 745.294 109.637 745.294 113.209V148.786C745.294 152.358 748.19 155.254 751.762 155.254L861.282 155.254C865.024 155.254 867.985 158.42 867.736 162.153L862.13 246.244C861.903 249.642 859.081 252.282 855.676 252.282L751.762 252.282C748.189 252.282 745.294 255.179 745.294 258.751V297.563C745.294 301.135 748.189 304.031 751.762 304.031L900.539 304.031C904.111 304.031 907.008 306.927 907.008 310.499V401.06C907.008 404.632 904.111 407.527 900.539 407.527L628.859 407.527C625.287 407.527 622.392 404.632 622.392 401.06V19.415C622.392 15.8427 625.287 12.9464 628.859 12.9463L894.07 12.9463ZM1103.83 12.9346C1107.4 12.9347 1110.3 15.831 1110.3 19.4033V287.849C1110.3 291.421 1113.2 294.317 1116.77 294.317H1217.03C1220.6 294.317 1223.5 297.213 1223.5 300.785V401.048C1223.5 404.62 1220.6 407.517 1217.03 407.517H997.101C993.528 407.517 990.632 404.62 990.632 401.048V19.4033C990.632 15.831 993.528 12.9347 997.101 12.9346L1103.83 12.9346ZM1852.47 17.6924C1978.89 22.8911 1977.4 191.941 1909.07 211.749C1994.77 237.623 1985.07 405.805 1852.47 405.806L1648.71 405.806V17.6924L1852.47 17.6924ZM212.355 9.70996C215.416 9.70115 218.077 11.885 218.695 14.8828C247.75 155.799 245.531 248.454 218.53 396.086C218 398.985 215.56 401.196 212.619 401.396C167.261 404.465 139.58 404.376 94.5596 401.468C91.0557 401.241 88.371 398.202 88.5166 394.693C94.4432 251.941 88.1023 171.568 66.5225 31.7812C66.0105 28.4647 68.1153 25.2546 71.3799 24.4775C120.591 12.7675 153.725 9.88257 212.355 9.70996ZM1765.16 305.539H1820.14C1849.25 299.068 1849.25 257.023 1820.14 250.555L1765.16 250.555V305.539ZM1765.16 169.704L1816.91 169.704C1842.58 156.868 1828.1 121.445 1817.17 121.189H1765.16V169.704Z" fill="white"/>
<path d="M469.334 0V-6.46855V-6.46855V0ZM591.083 42.5088L595.093 37.4329L595.093 37.4328L591.083 42.5088ZM592.688 50.4795L598.39 53.534L598.391 53.5337L592.688 50.4795ZM553.082 124.413L547.38 121.359V121.359L553.082 124.413ZM543.144 126.652L539.511 132.005L539.511 132.005L543.144 126.652ZM488.728 109.968V103.499V103.499V109.968ZM391.699 206.996H385.231V206.996H391.699ZM488.728 304.024V310.493V310.493V304.024ZM543.078 287.383L546.706 292.738V292.738L543.078 287.383ZM553.036 289.661L558.757 286.642V286.642L553.036 289.661ZM592.228 363.918L597.948 360.899L597.948 360.899L592.228 363.918ZM590.588 371.867L594.582 376.956V376.956L590.588 371.867ZM469.334 413.987V420.456V420.456V413.987ZM268.809 206.994H262.34V206.994L268.809 206.994ZM1976.48 132.607H1970.01V132.802L1970.02 132.996L1976.48 132.607ZM2253.16 45.4961L2256.61 40.0212V40.0212L2253.16 45.4961ZM2255.51 53.5801L2249.64 50.8561V50.8561L2255.51 53.5801ZM2218.76 132.729L2224.63 135.452V135.452L2218.76 132.729ZM2209.64 135.899L2206.82 141.721V141.721L2209.64 135.899ZM2098.87 136.487L2092.49 137.555V137.555L2098.87 136.487ZM2101.48 140.483L2097.94 145.897L2097.94 145.897L2101.48 140.483ZM2225.51 200.527L2230.52 196.431L2230.5 196.408L2230.48 196.386L2225.51 200.527ZM2257.86 284.618L2264.33 284.576V284.576L2257.86 284.618ZM2115.55 410.755L2115.44 417.223L2115.49 417.223H2115.55V410.755ZM1980.97 371.899L1977.26 377.2V377.2L1980.97 371.899ZM1978.94 363.786L1973.15 360.893L1973.15 360.894L1978.94 363.786ZM2018.74 284.179L2024.53 287.072V287.072L2018.74 284.179ZM2027.67 281.388L2024.6 287.078V287.078L2027.67 281.388ZM2118.78 304.023L2119.32 310.47V310.47L2118.78 304.023ZM2122.44 268.73L2126.05 263.362L2126.05 263.362L2122.44 268.73ZM2121.56 268.238L2118.88 274.127V274.127L2121.56 268.238ZM2016.38 220.427L2013.7 226.315V226.316L2016.38 220.427ZM2014.44 219.07L2009.82 223.595L2009.82 223.595L2014.44 219.07ZM1509.16 12.9463V19.4148V12.9463ZM1515.34 17.4912L1521.51 15.5676V15.5674L1515.34 17.4912ZM1634.21 399.136L1640.39 397.212V397.212L1634.21 399.136ZM1518.68 407.528L1518.68 413.997H1518.68V407.528ZM1512.51 402.984L1506.33 404.909V404.909L1512.51 402.984ZM1442.61 178.725L1436.43 180.649V180.649L1442.61 178.725ZM1430.23 178.798L1424.03 176.947V176.947L1430.23 178.798ZM1363.29 402.911L1369.49 404.763L1369.49 404.762L1363.29 402.911ZM1238.47 399.09L1244.63 401.059V401.059L1238.47 399.09ZM1360.47 17.4453L1354.31 15.4757V15.4757L1360.47 17.4453ZM1366.63 12.9463V6.47774H1366.63L1366.63 12.9463ZM894.07 12.9463L894.07 6.47774H894.07V12.9463ZM894.07 106.74V113.209H894.07L894.07 106.74ZM751.762 106.74V100.272H751.761L751.762 106.74ZM745.294 148.786H738.825V148.787L745.294 148.786ZM751.762 155.254L751.761 161.722H751.762V155.254ZM861.282 155.254L861.283 148.785H861.282V155.254ZM867.736 162.153L874.191 162.584V162.584L867.736 162.153ZM862.13 246.244L855.676 245.814V245.814L862.13 246.244ZM855.676 252.282V245.814V252.282ZM751.762 252.282V245.814H751.761L751.762 252.282ZM745.294 258.751L738.825 258.751V258.751H745.294ZM745.294 297.563H738.825V297.563L745.294 297.563ZM751.762 304.031L751.761 310.5H751.762V304.031ZM900.539 304.031L900.539 297.563H900.539V304.031ZM907.008 310.499H913.476V310.499L907.008 310.499ZM907.008 401.06L913.476 401.06V401.06H907.008ZM900.539 407.527V413.996H900.539L900.539 407.527ZM628.859 407.527L628.859 413.996H628.859V407.527ZM622.392 401.06H615.923V401.06L622.392 401.06ZM628.859 12.9463V6.47774H628.859L628.859 12.9463ZM1103.83 12.9346L1103.83 6.46602H1103.83V12.9346ZM1110.3 19.4033H1116.77V19.4032L1110.3 19.4033ZM1110.3 287.849H1103.83V287.849L1110.3 287.849ZM1116.77 294.317L1116.77 300.786H1116.77V294.317ZM1223.5 300.785L1229.97 300.785V300.785L1223.5 300.785ZM997.101 407.517L997.1 413.985H997.101V407.517ZM990.632 19.4033L984.163 19.4032V19.4033H990.632ZM997.101 12.9346V6.46602H997.1L997.101 12.9346ZM1852.47 17.6924L1852.73 11.2293L1852.6 11.2238H1852.47V17.6924ZM1909.07 211.749L1907.27 205.536L1886.27 211.623L1907.2 217.942L1909.07 211.749ZM1852.47 405.806V412.274V412.274V405.806ZM1648.71 405.806H1642.24V412.274H1648.71V405.806ZM1648.71 17.6924V11.2238H1642.24V17.6924L1648.71 17.6924ZM212.355 9.70996L212.337 3.24143L212.336 3.24144L212.355 9.70996ZM218.695 14.8828L225.031 13.5766L225.031 13.5762L218.695 14.8828ZM218.53 396.086L224.893 397.25L218.53 396.086ZM212.619 401.396L213.056 407.849H213.056L212.619 401.396ZM94.5596 401.468L94.1424 407.923L94.1426 407.923L94.5596 401.468ZM88.5166 394.693L82.0536 394.425L82.0536 394.425L88.5166 394.693ZM66.5225 31.7812L60.1296 32.768L60.1296 32.7682L66.5225 31.7812ZM71.3799 24.4775L69.8825 18.1847L69.882 18.1848L71.3799 24.4775ZM1765.16 305.539H1758.69V312.008H1765.16V305.539ZM1820.14 305.539V312.008H1820.85L1821.55 311.853L1820.14 305.539ZM1820.14 250.555L1821.55 244.24L1820.85 244.086H1820.14V250.555ZM1765.16 250.555V244.086H1758.69V250.555H1765.16ZM1765.16 169.704H1758.69V176.173H1765.16V169.704ZM1816.91 169.704V176.173H1818.44L1819.8 175.49L1816.91 169.704ZM1817.17 121.189L1817.32 114.723L1817.24 114.721H1817.17V121.189ZM1765.16 121.189V114.721H1758.69V121.189H1765.16ZM469.334 0V6.46855C513.599 6.46866 554.403 21.7782 587.073 47.5848L591.083 42.5088L595.093 37.4328C560.25 9.90992 516.647 -6.46844 469.334 -6.46855V0ZM591.083 42.5088L587.073 47.5847C587.055 47.5701 587.032 47.5455 587.014 47.5154C586.997 47.4879 586.991 47.4661 586.988 47.4534C586.983 47.4295 586.99 47.4183 586.986 47.4253L592.688 50.4795L598.391 53.5337C601.271 48.156 600.041 41.3416 595.093 37.4329L591.083 42.5088ZM592.688 50.4795L586.987 47.425L547.38 121.359L553.082 124.413L558.784 127.468L598.39 53.534L592.688 50.4795ZM553.082 124.413L547.38 121.359C547.373 121.371 547.371 121.372 547.375 121.368C547.378 121.365 547.38 121.363 547.379 121.364C547.376 121.366 547.345 121.388 547.275 121.403C547.122 121.436 546.935 121.408 546.776 121.3L543.144 126.652L539.511 132.005C545.747 136.236 554.898 134.722 558.784 127.468L553.082 124.413ZM543.144 126.652L546.776 121.3C530.22 110.065 510.231 103.499 488.728 103.499V109.968V116.436C507.559 116.436 525.031 122.178 539.511 132.005L543.144 126.652ZM488.728 109.968V103.499C431.568 103.499 385.231 149.836 385.231 206.996H391.699H398.168C398.168 156.981 438.713 116.436 488.728 116.436V109.968ZM391.699 206.996H385.231C385.231 264.156 431.568 310.493 488.728 310.493V304.024V297.556C438.713 297.556 398.168 257.011 398.168 206.996H391.699ZM488.728 304.024V310.493C510.201 310.493 530.164 303.945 546.706 292.738L543.078 287.383L539.45 282.027C524.981 291.83 507.533 297.556 488.728 297.556V304.024ZM543.078 287.383L546.706 292.738C546.866 292.63 547.055 292.601 547.21 292.636C547.28 292.651 547.312 292.673 547.315 292.675C547.316 292.676 547.313 292.674 547.31 292.671C547.307 292.667 547.309 292.668 547.315 292.68L553.036 289.661L558.757 286.642C554.9 279.334 545.71 277.787 539.45 282.027L543.078 287.383ZM553.036 289.661L547.315 292.68L586.507 366.937L592.228 363.918L597.948 360.899L558.757 286.642L553.036 289.661ZM592.228 363.918L586.507 366.937C586.51 366.944 586.504 366.933 586.509 366.909C586.511 366.897 586.518 366.875 586.534 366.848C586.553 366.818 586.576 366.793 586.594 366.779L590.588 371.867L594.582 376.956C599.53 373.072 600.789 366.281 597.948 360.899L592.228 363.918ZM590.588 371.867L586.594 366.779C554.005 392.357 513.383 407.519 469.334 407.519V413.987V420.456C516.417 420.456 559.824 404.236 594.582 376.956L590.588 371.867ZM469.334 413.987V407.519C362.352 407.519 275.277 317.936 275.277 206.994L268.809 206.994L262.34 206.994C262.34 324.691 354.823 420.456 469.334 420.456V413.987ZM268.809 206.994H275.277C275.277 96.0521 362.352 6.46855 469.334 6.46855V0V-6.46855C354.822 -6.46855 262.34 89.2973 262.34 206.994H268.809ZM1976.48 132.607H1982.94C1982.94 96.3387 1992.82 69.2447 2008.8 49.8543C2024.8 30.4369 2047.38 18.1893 2073.78 12.4663C2126.79 0.972016 2194.25 16.0677 2249.72 50.9709L2253.16 45.4961L2256.61 40.0212C2198.98 3.76139 2128.1 -12.5486 2071.04 -0.177033C2042.4 6.0329 2017.02 19.5361 1998.81 41.6265C1980.58 63.7439 1970.01 93.9149 1970.01 132.607H1976.48ZM2253.16 45.4961L2249.72 50.9709C2249.7 50.9631 2249.68 50.9458 2249.67 50.9223C2249.65 50.9015 2249.64 50.8854 2249.64 50.8774C2249.64 50.8696 2249.64 50.8638 2249.64 50.8587C2249.64 50.851 2249.64 50.8487 2249.64 50.8561L2255.51 53.5801L2261.37 56.3041C2264.06 50.5144 2262.14 43.5055 2256.61 40.0212L2253.16 45.4961ZM2255.51 53.5801L2249.64 50.8561L2212.89 130.005L2218.76 132.729L2224.63 135.452L2261.37 56.304L2255.51 53.5801ZM2218.76 132.729L2212.89 130.005C2212.88 130.032 2212.87 130.041 2212.86 130.049C2212.85 130.061 2212.82 130.082 2212.77 130.098C2212.67 130.133 2212.56 130.128 2212.46 130.078L2209.64 135.899L2206.82 141.721C2213.35 144.883 2221.46 142.272 2224.63 135.452L2218.76 132.729ZM2209.64 135.899L2212.46 130.078C2197.81 122.98 2167.41 110.402 2141.41 105.932C2128.65 103.738 2115.58 103.233 2105.96 107.555C2100.9 109.829 2096.66 113.504 2094.18 118.92C2091.75 124.22 2091.31 130.513 2092.49 137.555L2098.87 136.487L2105.25 135.42C2104.35 130.033 2104.91 126.549 2105.94 124.309C2106.91 122.186 2108.58 120.56 2111.26 119.356C2117.12 116.722 2126.85 116.556 2139.22 118.682C2163.47 122.852 2192.61 134.838 2206.82 141.721L2209.64 135.899ZM2098.87 136.487L2092.49 137.555C2093.06 140.937 2095.04 144.006 2097.94 145.897L2101.48 140.483L2105.02 135.07C2105.12 135.134 2105.16 135.193 2105.18 135.224C2105.2 135.256 2105.23 135.315 2105.25 135.419L2098.87 136.487ZM2101.48 140.483L2097.94 145.897C2117 158.364 2144.83 168.888 2168.96 178.395C2181.2 183.219 2192.53 187.789 2201.77 192.305C2211.23 196.932 2217.54 201.063 2220.55 204.668L2225.51 200.527L2230.48 196.386C2225.56 190.474 2216.99 185.343 2207.45 180.682C2197.68 175.909 2185.89 171.163 2173.7 166.358C2148.96 156.609 2122.7 146.628 2105.02 135.069L2101.48 140.483ZM2225.51 200.527L2220.51 204.624C2233.09 219.999 2240.63 231.796 2245.14 243.677C2249.62 255.502 2251.28 267.869 2251.39 284.66L2257.86 284.618L2264.33 284.576C2264.21 266.968 2262.47 252.902 2257.23 239.088C2252.01 225.331 2243.49 212.283 2230.52 196.431L2225.51 200.527ZM2257.86 284.618L2251.39 284.66C2251.65 325.422 2239.93 354.92 2217.81 374.362C2195.53 393.946 2161.61 404.286 2115.55 404.286V410.755V417.223C2163.28 417.223 2200.79 406.541 2226.35 384.079C2252.07 361.475 2264.61 327.905 2264.33 284.576L2257.86 284.618ZM2115.55 410.755L2115.66 404.287C2084.87 403.77 2062.35 401.406 2042.5 395.716C2022.72 390.051 2005.24 380.985 1984.68 366.599L1980.97 371.899L1977.26 377.2C1998.62 392.143 2017.4 401.984 2038.93 408.153C2060.37 414.297 2084.19 416.697 2115.44 417.223L2115.55 410.755ZM1980.97 371.899L1984.68 366.599C1984.68 366.601 1984.68 366.605 1984.69 366.612C1984.7 366.619 1984.7 366.626 1984.71 366.634C1984.72 366.648 1984.72 366.658 1984.72 366.662C1984.72 366.665 1984.72 366.668 1984.72 366.673C1984.72 366.68 1984.72 366.684 1984.72 366.679L1978.94 363.786L1973.15 360.894C1970.32 366.556 1971.99 373.515 1977.26 377.2L1980.97 371.899ZM1978.94 363.786L1984.72 366.679L2024.53 287.072L2018.74 284.179L2012.95 281.286L1973.15 360.893L1978.94 363.786ZM2018.74 284.179L2024.53 287.072C2024.53 287.064 2024.53 287.064 2024.53 287.067C2024.53 287.071 2024.52 287.074 2024.52 287.076C2024.52 287.079 2024.52 287.075 2024.53 287.071C2024.55 287.066 2024.56 287.066 2024.57 287.066C2024.57 287.067 2024.57 287.067 2024.58 287.068C2024.58 287.069 2024.59 287.071 2024.6 287.078L2027.67 281.388L2030.75 275.697C2024.35 272.236 2016.26 274.684 2012.95 281.286L2018.74 284.179ZM2027.67 281.388L2024.6 287.078C2057.33 304.776 2080.98 313.665 2119.32 310.47L2118.78 304.023L2118.25 297.577C2083.37 300.483 2062.32 292.765 2030.75 275.697L2027.67 281.388ZM2118.78 304.023L2119.32 310.47C2130.76 309.516 2140.07 302.763 2141.97 292.319C2143.84 282.002 2137.9 271.326 2126.05 263.362L2122.44 268.73L2118.84 274.099C2128.28 280.451 2129.85 286.644 2129.24 290.005C2128.65 293.24 2125.47 296.975 2118.25 297.577L2118.78 304.023ZM2122.44 268.73L2126.05 263.362C2125.46 262.965 2124.85 262.627 2124.24 262.35L2121.56 268.238L2118.88 274.127C2118.88 274.125 2118.88 274.124 2118.87 274.121C2118.87 274.119 2118.86 274.113 2118.84 274.099L2122.44 268.73ZM2121.56 268.238L2124.24 262.35L2019.05 214.538L2016.38 220.427L2013.7 226.316L2118.88 274.127L2121.56 268.238ZM2016.38 220.427L2019.05 214.538C2019.06 214.54 2019.06 214.541 2019.06 214.541C2019.06 214.541 2019.06 214.541 2019.06 214.54C2019.06 214.539 2019.06 214.539 2019.06 214.539C2019.06 214.54 2019.06 214.541 2019.06 214.545L2014.44 219.07L2009.82 223.595C2010.93 224.731 2012.25 225.658 2013.7 226.315L2016.38 220.427ZM2014.44 219.07L2019.06 214.546C2005.13 200.31 1996.8 188.825 1991.58 176.596C1986.36 164.345 1984.05 150.856 1982.93 132.219L1976.48 132.607L1970.02 132.996C1971.18 152.239 1973.61 167.433 1979.68 181.67C1985.76 195.929 1995.27 208.736 2009.82 223.595L2014.44 219.07ZM1509.16 12.9463V19.4148L1509.16 19.415L1515.34 17.4912L1521.51 15.5674C1519.83 10.1612 1514.82 6.47774 1509.16 6.47774V12.9463ZM1515.34 17.4912L1509.16 19.4149L1628.03 401.059L1634.21 399.136L1640.39 397.212L1521.51 15.5676L1515.34 17.4912ZM1634.21 399.136L1628.03 401.059L1628.03 401.06V407.528V413.997C1636.76 413.997 1642.98 405.54 1640.39 397.212L1634.21 399.136ZM1628.03 407.528V401.06H1518.68V407.528V413.997H1628.03V407.528ZM1518.68 407.528L1518.68 401.06L1518.68 401.059L1512.51 402.984L1506.33 404.909C1508.01 410.314 1513.02 413.997 1518.68 413.997L1518.68 407.528ZM1512.51 402.984L1518.68 401.06L1448.78 176.8L1442.61 178.725L1436.43 180.649L1506.33 404.909L1512.51 402.984ZM1442.61 178.725L1448.78 176.8C1444.98 164.608 1427.69 164.709 1424.03 176.947L1430.23 178.798L1436.43 180.649C1436.44 180.625 1436.44 180.607 1436.45 180.594C1436.45 180.582 1436.46 180.573 1436.46 180.569C1436.46 180.564 1436.46 180.563 1436.46 180.564C1436.46 180.566 1436.46 180.569 1436.46 180.574C1436.45 180.579 1436.45 180.584 1436.44 180.591C1436.44 180.597 1436.43 180.604 1436.42 180.61C1436.41 180.624 1436.4 180.635 1436.39 180.643C1436.36 180.66 1436.35 180.662 1436.36 180.659C1436.37 180.657 1436.38 180.655 1436.39 180.653C1436.4 180.651 1436.41 180.649 1436.43 180.649C1436.45 180.649 1436.46 180.65 1436.47 180.652C1436.49 180.654 1436.5 180.656 1436.5 180.658C1436.51 180.661 1436.5 180.659 1436.48 180.643C1436.46 180.634 1436.45 180.624 1436.44 180.61C1436.43 180.604 1436.42 180.598 1436.42 180.591C1436.41 180.585 1436.41 180.579 1436.4 180.574C1436.4 180.569 1436.4 180.566 1436.4 180.565C1436.4 180.564 1436.4 180.565 1436.4 180.569C1436.4 180.574 1436.41 180.582 1436.41 180.595C1436.42 180.608 1436.42 180.626 1436.43 180.649L1442.61 178.725ZM1430.23 178.798L1424.03 176.947L1357.09 401.06L1363.29 402.911L1369.49 404.762L1436.43 180.649L1430.23 178.798ZM1363.29 402.911L1357.09 401.06L1357.09 401.06V407.528V413.997C1362.81 413.997 1367.85 410.242 1369.49 404.763L1363.29 402.911ZM1357.09 407.528V401.06H1244.63V407.528V413.997H1357.09V407.528ZM1244.63 407.528V401.06L1244.63 401.059L1238.47 399.09L1232.31 397.12C1229.64 405.467 1235.87 413.997 1244.63 413.997V407.528ZM1238.47 399.09L1244.63 401.059L1366.63 19.4149L1360.47 17.4453L1354.31 15.4757L1232.31 397.12L1238.47 399.09ZM1360.47 17.4453L1366.63 19.415L1366.63 19.4148L1366.63 12.9463L1366.63 6.47774C1361.01 6.47784 1356.02 10.1159 1354.31 15.4757L1360.47 17.4453ZM1366.63 12.9463V19.4148L1509.16 19.4148V12.9463V6.47774L1366.63 6.47774V12.9463ZM894.07 12.9463L894.07 19.4148L894.07 19.415H900.539H907.008C907.008 12.27 901.215 6.47781 894.07 6.47774L894.07 12.9463ZM900.539 19.415H894.07V100.271H900.539H907.008V19.415H900.539ZM900.539 100.271H894.07L894.07 100.272L894.07 106.74L894.07 113.209C901.215 113.209 907.008 107.416 907.008 100.271H900.539ZM894.07 106.74V100.272L751.762 100.272V106.74V113.209L894.07 113.209V106.74ZM751.762 106.74L751.761 100.272C744.616 100.272 738.825 106.065 738.825 113.209H745.294H751.763L751.762 113.209L751.762 106.74ZM745.294 113.209H738.825V148.786H745.294H751.763V113.209H745.294ZM745.294 148.786L738.825 148.787C738.826 155.931 744.617 161.722 751.761 161.722L751.762 155.254L751.762 148.785L751.763 148.786L745.294 148.786ZM751.762 155.254V161.722H861.282V155.254V148.785H751.762V155.254ZM861.282 155.254L861.282 161.722L861.282 161.723L867.736 162.153L874.191 162.584C874.688 155.117 868.766 148.786 861.283 148.785L861.282 155.254ZM867.736 162.153L861.282 161.723L855.676 245.814L862.13 246.244L868.584 246.674L874.191 162.584L867.736 162.153ZM862.13 246.244L855.676 245.814L855.676 245.814V252.282V258.751C862.487 258.751 868.131 253.47 868.584 246.674L862.13 246.244ZM855.676 252.282V245.814H751.762V252.282V258.751L855.676 258.751V252.282ZM751.762 252.282L751.761 245.814C744.616 245.814 738.826 251.607 738.825 258.751L745.294 258.751L751.763 258.751L751.762 258.751L751.762 252.282ZM745.294 258.751H738.825V297.563H745.294H751.763V258.751H745.294ZM745.294 297.563L738.825 297.563C738.826 304.706 744.616 310.499 751.761 310.5L751.762 304.031L751.762 297.563L751.763 297.562L745.294 297.563ZM751.762 304.031V310.5L900.539 310.5V304.031V297.563L751.762 297.563V304.031ZM900.539 304.031L900.539 310.5L900.539 310.499L907.008 310.499L913.476 310.499C913.476 303.353 907.683 297.563 900.539 297.563L900.539 304.031ZM907.008 310.499H900.539V401.06H907.008H913.476V310.499H907.008ZM907.008 401.06L900.539 401.059L900.539 401.059L900.539 407.527L900.539 413.996C907.683 413.996 913.476 408.206 913.476 401.06L907.008 401.06ZM900.539 407.527V401.059L628.859 401.059V407.527V413.996L900.539 413.996V407.527ZM628.859 407.527L628.86 401.059L628.86 401.059L622.392 401.06L615.923 401.06C615.923 408.204 621.715 413.996 628.859 413.996L628.859 407.527ZM622.392 401.06H628.86V19.415H622.392H615.923V401.06H622.392ZM622.392 19.415H628.86L628.86 19.4148L628.859 12.9463L628.859 6.47774C621.714 6.47805 615.923 12.2712 615.923 19.415H622.392ZM628.859 12.9463V19.4148L894.07 19.4148V12.9463V6.47774L628.859 6.47774V12.9463ZM1103.83 12.9346L1103.83 19.4031L1103.83 19.4035L1110.3 19.4033L1116.77 19.4032C1116.77 12.2584 1110.98 6.46619 1103.83 6.46602L1103.83 12.9346ZM1110.3 19.4033H1103.83V287.849H1110.3H1116.77V19.4033H1110.3ZM1110.3 287.849L1103.83 287.849C1103.83 294.992 1109.62 300.785 1116.77 300.786L1116.77 294.317L1116.77 287.849L1116.77 287.848L1110.3 287.849ZM1116.77 294.317V300.786H1217.03V294.317V287.849H1116.77V294.317ZM1217.03 294.317V300.786L1217.03 300.785L1223.5 300.785L1229.97 300.785C1229.97 293.639 1224.18 287.849 1217.03 287.849V294.317ZM1223.5 300.785H1217.03V401.048H1223.5L1229.97 401.048V300.785L1223.5 300.785ZM1223.5 401.048H1217.03L1217.03 401.048V407.517V413.985C1224.18 413.985 1229.97 408.193 1229.97 401.048L1223.5 401.048ZM1217.03 407.517V401.048H997.101V407.517V413.985H1217.03V407.517ZM997.101 407.517L997.101 401.048L997.1 401.048H990.632H984.163C984.163 408.193 989.956 413.985 997.1 413.985L997.101 407.517ZM990.632 401.048H997.1V19.4033H990.632H984.163V401.048H990.632ZM990.632 19.4033L997.1 19.4035L997.101 19.4031L997.101 12.9346L997.1 6.46602C989.956 6.4662 984.163 12.2584 984.163 19.4032L990.632 19.4033ZM997.101 12.9346V19.4031L1103.83 19.4031V12.9346V6.46602L997.101 6.46602V12.9346ZM1852.47 17.6924L1852.2 24.1555C1882.25 25.3913 1904.28 36.3004 1919.64 51.9518C1935.09 67.6967 1944.13 88.6001 1947.41 110.213C1950.69 131.852 1948.14 153.797 1940.86 171.321C1933.56 188.896 1921.86 201.305 1907.27 205.536L1909.07 211.749L1910.87 217.962C1930.44 212.289 1944.56 196.139 1952.81 176.284C1961.07 156.378 1963.8 132.022 1960.2 108.272C1956.59 84.4964 1946.57 60.9244 1928.87 42.8912C1911.09 24.7646 1885.89 12.5928 1852.73 11.2293L1852.47 17.6924ZM1909.07 211.749L1907.2 217.942C1945.75 229.58 1964.21 273.935 1956.27 317.315C1952.35 338.72 1942.02 359.191 1925.01 374.285C1908.07 389.32 1884.17 399.337 1852.47 399.337V405.806V412.274C1887.07 412.274 1914.1 401.268 1933.6 383.96C1953.03 366.712 1964.63 343.52 1969 319.645C1977.63 272.465 1958.09 219.793 1910.94 205.557L1909.07 211.749ZM1852.47 405.806V399.337L1648.71 399.337V405.806V412.274L1852.47 412.274V405.806ZM1648.71 405.806H1655.18V17.6924H1648.71L1642.24 17.6924V405.806H1648.71ZM1648.71 17.6924V24.1609L1852.47 24.1609V17.6924V11.2238L1648.71 11.2238V17.6924ZM212.355 9.70996L212.374 16.1785C212.37 16.1785 212.364 16.1781 212.358 16.1769C212.351 16.1758 212.346 16.1743 212.343 16.1732C212.34 16.1721 212.339 16.1716 212.341 16.1723C212.342 16.173 212.344 16.1746 212.348 16.1773C212.351 16.1799 212.354 16.1829 212.356 16.1858C212.359 16.1886 212.36 16.1907 212.361 16.1916C212.361 16.1924 212.361 16.1921 212.361 16.1908C212.36 16.1893 212.36 16.1885 212.36 16.1894L218.695 14.8828L225.031 13.5762C223.798 7.59846 218.507 3.22367 212.337 3.24143L212.355 9.70996ZM218.695 14.8828L212.36 16.1891C241.219 156.157 239.045 247.961 212.167 394.922L218.53 396.086L224.893 397.25C252.016 248.946 254.281 155.441 225.031 13.5766L218.695 14.8828ZM218.53 396.086L212.167 394.922C212.167 394.924 212.167 394.925 212.167 394.925C212.166 394.925 212.166 394.927 212.165 394.929C212.164 394.931 212.162 394.934 212.159 394.937C212.156 394.941 212.153 394.944 212.15 394.947C212.143 394.953 212.141 394.953 212.147 394.95C212.151 394.948 212.156 394.947 212.163 394.945C212.17 394.943 212.177 394.942 212.182 394.942L212.619 401.396L213.056 407.849C218.997 407.447 223.839 403.013 224.893 397.25L218.53 396.086ZM212.619 401.396L212.182 394.942C167.122 397.991 139.727 397.904 94.9766 395.013L94.5596 401.468L94.1426 407.923C139.433 410.849 167.399 410.939 213.056 407.849L212.619 401.396ZM94.5596 401.468L94.9768 395.013C94.9781 395.013 94.9845 395.013 94.9934 395.016C95.002 395.018 95.0087 395.021 95.013 395.023C95.0205 395.027 95.0146 395.026 95.0032 395.013C94.9917 395 94.9846 394.986 94.9816 394.978C94.9804 394.975 94.98 394.973 94.9799 394.972C94.9798 394.971 94.9793 394.968 94.9796 394.962L88.5166 394.693L82.0536 394.425C81.7651 401.378 87.0652 407.465 94.1424 407.923L94.5596 401.468ZM88.5166 394.693L94.9796 394.962C100.926 251.723 94.5482 170.925 72.9153 30.7943L66.5225 31.7812L60.1296 32.7682C81.6564 172.211 87.9601 252.158 82.0536 394.425L88.5166 394.693ZM66.5225 31.7812L72.9153 30.7945C72.9144 30.7886 72.9145 30.7856 72.9145 30.7845C72.9146 30.783 72.9148 30.7807 72.9155 30.7774C72.9173 30.7694 72.9216 30.7584 72.9282 30.7485C72.9347 30.7388 72.9363 30.7404 72.9255 30.7481C72.9197 30.7522 72.9115 30.7572 72.9015 30.7618C72.8911 30.7665 72.8825 30.7691 72.8778 30.7703L71.3799 24.4775L69.882 18.1848C63.2578 19.7616 59.1163 26.2026 60.1296 32.768L66.5225 31.7812ZM71.3799 24.4775L72.8773 30.7704C121.469 19.2077 154.081 16.3501 212.375 16.1785L212.355 9.70996L212.336 3.24144C153.369 3.41504 119.712 6.32735 69.8825 18.1847L71.3799 24.4775ZM1765.16 305.539V312.008H1820.14V305.539V299.07H1765.16V305.539ZM1820.14 305.539L1821.55 311.853C1857.41 303.882 1857.41 252.21 1821.55 244.24L1820.14 250.555L1818.74 256.869C1841.09 261.837 1841.1 294.255 1818.74 299.225L1820.14 305.539ZM1820.14 250.555V244.086L1765.16 244.086V250.555V257.023H1820.14V250.555ZM1765.16 250.555H1758.69V305.539H1765.16H1771.63V250.555H1765.16ZM1765.16 169.704V176.173L1816.91 176.173V169.704V163.236L1765.16 163.236V169.704ZM1816.91 169.704L1819.8 175.49C1835.95 167.418 1839.24 152.006 1837.14 139.648C1836.1 133.517 1833.73 127.753 1830.65 123.359C1827.85 119.377 1823.27 114.862 1817.32 114.723L1817.17 121.189L1817.02 127.656C1816.53 127.645 1817.86 127.653 1820.05 130.786C1821.96 133.506 1823.65 137.448 1824.39 141.81C1825.85 150.436 1823.55 159.154 1814.02 163.918L1816.91 169.704ZM1817.17 121.189V114.721H1765.16V121.189V127.658H1817.17V121.189ZM1765.16 121.189H1758.69V169.704H1765.16H1771.63V121.189H1765.16Z" fill="white" mask="url(#path-2-inside-1_817_46)"/>
<mask id="path-4-outside-2_817_46" maskUnits="userSpaceOnUse" x="404.766" y="557.025" width="1519" height="211" fill="black">
<rect fill="white" x="404.766" y="557.025" width="1519" height="211"/>
<path d="M550.938 572.089V752.749H550.163C549.647 752.749 549.174 752.448 548.744 751.846L420.217 576.864C420.303 577.466 420.346 578.025 420.346 578.542C420.346 579.058 420.346 579.574 420.346 580.09V752.749H417.766V572.089H418.798C419.572 572.089 420.174 572.434 420.605 573.122L548.486 747.2C548.4 746.77 548.357 746.34 548.357 745.91C548.357 745.394 548.357 744.921 548.357 744.491V572.089H550.938Z"/>
<path d="M699.607 752.233C709.328 752.233 718.017 750.513 725.674 747.071C733.416 743.544 739.954 738.77 745.288 732.748C750.622 726.726 754.708 719.671 757.547 711.585C760.386 703.498 761.806 694.852 761.806 685.647V572.089H764.903V685.647C764.903 695.196 763.397 704.186 760.386 712.617C757.375 721.048 753.031 728.403 747.353 734.683C741.675 740.963 734.793 745.953 726.706 749.652C718.705 753.265 709.672 755.072 699.607 755.072C689.542 755.072 680.466 753.265 672.379 749.652C664.378 745.953 657.539 740.963 651.861 734.683C646.183 728.403 641.839 721.048 638.828 712.617C635.817 704.186 634.311 695.196 634.311 685.647V572.089H637.408V685.389C637.408 694.594 638.828 703.283 641.667 711.456C644.506 719.542 648.592 726.64 653.926 732.748C659.26 738.77 665.755 743.544 673.411 747.071C681.154 750.513 689.886 752.233 699.607 752.233Z"/>
<path d="M961.364 574.928H893.488V752.749H890.391V574.928H821.998V572.089H961.364V574.928Z"/>
<path d="M1024.04 662.936H1060.43C1069.29 662.936 1077.25 661.903 1084.3 659.838C1091.44 657.688 1097.5 654.677 1102.49 650.806C1107.57 646.848 1111.44 642.074 1114.11 636.482C1116.86 630.804 1118.24 624.395 1118.24 617.254C1118.24 602.544 1113.46 591.79 1103.91 584.994C1094.36 578.111 1080.64 574.67 1062.75 574.67H1024.04V662.936ZM1137.59 752.749H1135.53C1134.84 752.749 1134.28 752.706 1133.85 752.62C1133.42 752.448 1132.86 751.975 1132.17 751.201L1064.56 670.162C1063.87 669.302 1063.14 668.57 1062.36 667.968C1061.67 667.366 1060.86 666.893 1059.91 666.549C1059.05 666.119 1057.97 665.86 1056.68 665.774C1055.48 665.602 1053.97 665.516 1052.17 665.516H1024.04V752.749H1020.94V572.089H1062.75C1081.59 572.089 1096.04 575.746 1106.11 583.058C1116.26 590.371 1121.33 601.769 1121.33 617.254C1121.33 624.567 1119.92 631.191 1117.08 637.127C1114.24 642.977 1110.24 647.967 1105.08 652.096C1099.91 656.225 1093.72 659.451 1086.49 661.774C1079.35 664.097 1071.44 665.344 1062.75 665.516C1063.61 665.86 1064.38 666.334 1065.07 666.936C1065.76 667.452 1066.45 668.097 1067.14 668.871L1137.59 752.749Z"/>
<path d="M1202.33 752.749H1199.23V572.089H1202.33V752.749Z"/>
<path d="M1401.22 574.928H1333.34V752.749H1330.24V574.928H1261.85V572.089H1401.22V574.928Z"/>
<path d="M1463.89 752.749H1460.79V572.089H1463.89V752.749Z"/>
<path d="M1704.33 662.419C1704.33 676.7 1702.27 689.518 1698.14 700.874C1694.1 712.23 1688.38 721.908 1680.98 729.909C1673.66 737.823 1664.89 743.931 1654.65 748.233C1644.41 752.448 1633.1 754.556 1620.71 754.556C1608.41 754.556 1597.14 752.448 1586.9 748.233C1576.75 743.931 1567.98 737.823 1560.58 729.909C1553.27 721.908 1547.55 712.23 1543.42 700.874C1539.37 689.518 1537.35 676.7 1537.35 662.419C1537.35 648.225 1539.37 635.449 1543.42 624.094C1547.55 612.652 1553.27 602.931 1560.58 594.93C1567.98 586.929 1576.75 580.778 1586.9 576.477C1597.14 572.175 1608.41 570.025 1620.71 570.025C1633.1 570.025 1644.41 572.175 1654.65 576.477C1664.89 580.692 1673.66 586.8 1680.98 594.801C1688.38 602.802 1694.1 612.523 1698.14 623.965C1702.27 635.32 1704.33 648.139 1704.33 662.419ZM1700.98 662.419C1700.98 648.397 1699 635.837 1695.04 624.739C1691.17 613.641 1685.71 604.221 1678.65 596.479C1671.6 588.736 1663.13 582.843 1653.23 578.8C1643.43 574.67 1632.59 572.606 1620.71 572.606C1609.01 572.606 1598.26 574.67 1588.45 578.8C1578.65 582.843 1570.17 588.736 1563.03 596.479C1555.98 604.221 1550.43 613.641 1546.39 624.739C1542.43 635.837 1540.45 648.397 1540.45 662.419C1540.45 676.442 1542.43 689.002 1546.39 700.1C1550.43 711.111 1555.98 720.489 1563.03 728.231C1570.17 735.888 1578.65 741.781 1588.45 745.91C1598.26 749.953 1609.01 751.975 1620.71 751.975C1632.59 751.975 1643.43 749.953 1653.23 745.91C1663.13 741.781 1671.6 735.888 1678.65 728.231C1685.71 720.489 1691.17 711.111 1695.04 700.1C1699 689.002 1700.98 676.442 1700.98 662.419Z"/>
<path d="M1910.98 572.089V752.749H1910.2C1909.69 752.749 1909.21 752.448 1908.78 751.846L1780.26 576.864C1780.34 577.466 1780.39 578.025 1780.39 578.542C1780.39 579.058 1780.39 579.574 1780.39 580.09V752.749H1777.81V572.089H1778.84C1779.61 572.089 1780.21 572.434 1780.64 573.122L1908.53 747.2C1908.44 746.77 1908.4 746.34 1908.4 745.91C1908.4 745.394 1908.4 744.921 1908.4 744.491V572.089H1910.98Z"/>
</mask>
<path d="M550.938 572.089V752.749H550.163C549.647 752.749 549.174 752.448 548.744 751.846L420.217 576.864C420.303 577.466 420.346 578.025 420.346 578.542C420.346 579.058 420.346 579.574 420.346 580.09V752.749H417.766V572.089H418.798C419.572 572.089 420.174 572.434 420.605 573.122L548.486 747.2C548.4 746.77 548.357 746.34 548.357 745.91C548.357 745.394 548.357 744.921 548.357 744.491V572.089H550.938Z" fill="white"/>
<path d="M699.607 752.233C709.328 752.233 718.017 750.513 725.674 747.071C733.416 743.544 739.954 738.77 745.288 732.748C750.622 726.726 754.708 719.671 757.547 711.585C760.386 703.498 761.806 694.852 761.806 685.647V572.089H764.903V685.647C764.903 695.196 763.397 704.186 760.386 712.617C757.375 721.048 753.031 728.403 747.353 734.683C741.675 740.963 734.793 745.953 726.706 749.652C718.705 753.265 709.672 755.072 699.607 755.072C689.542 755.072 680.466 753.265 672.379 749.652C664.378 745.953 657.539 740.963 651.861 734.683C646.183 728.403 641.839 721.048 638.828 712.617C635.817 704.186 634.311 695.196 634.311 685.647V572.089H637.408V685.389C637.408 694.594 638.828 703.283 641.667 711.456C644.506 719.542 648.592 726.64 653.926 732.748C659.26 738.77 665.755 743.544 673.411 747.071C681.154 750.513 689.886 752.233 699.607 752.233Z" fill="white"/>
<path d="M961.364 574.928H893.488V752.749H890.391V574.928H821.998V572.089H961.364V574.928Z" fill="white"/>
<path d="M1024.04 662.936H1060.43C1069.29 662.936 1077.25 661.903 1084.3 659.838C1091.44 657.688 1097.5 654.677 1102.49 650.806C1107.57 646.848 1111.44 642.074 1114.11 636.482C1116.86 630.804 1118.24 624.395 1118.24 617.254C1118.24 602.544 1113.46 591.79 1103.91 584.994C1094.36 578.111 1080.64 574.67 1062.75 574.67H1024.04V662.936ZM1137.59 752.749H1135.53C1134.84 752.749 1134.28 752.706 1133.85 752.62C1133.42 752.448 1132.86 751.975 1132.17 751.201L1064.56 670.162C1063.87 669.302 1063.14 668.57 1062.36 667.968C1061.67 667.366 1060.86 666.893 1059.91 666.549C1059.05 666.119 1057.97 665.86 1056.68 665.774C1055.48 665.602 1053.97 665.516 1052.17 665.516H1024.04V752.749H1020.94V572.089H1062.75C1081.59 572.089 1096.04 575.746 1106.11 583.058C1116.26 590.371 1121.33 601.769 1121.33 617.254C1121.33 624.567 1119.92 631.191 1117.08 637.127C1114.24 642.977 1110.24 647.967 1105.08 652.096C1099.91 656.225 1093.72 659.451 1086.49 661.774C1079.35 664.097 1071.44 665.344 1062.75 665.516C1063.61 665.86 1064.38 666.334 1065.07 666.936C1065.76 667.452 1066.45 668.097 1067.14 668.871L1137.59 752.749Z" fill="white"/>
<path d="M1202.33 752.749H1199.23V572.089H1202.33V752.749Z" fill="white"/>
<path d="M1401.22 574.928H1333.34V752.749H1330.24V574.928H1261.85V572.089H1401.22V574.928Z" fill="white"/>
<path d="M1463.89 752.749H1460.79V572.089H1463.89V752.749Z" fill="white"/>
<path d="M1704.33 662.419C1704.33 676.7 1702.27 689.518 1698.14 700.874C1694.1 712.23 1688.38 721.908 1680.98 729.909C1673.66 737.823 1664.89 743.931 1654.65 748.233C1644.41 752.448 1633.1 754.556 1620.71 754.556C1608.41 754.556 1597.14 752.448 1586.9 748.233C1576.75 743.931 1567.98 737.823 1560.58 729.909C1553.27 721.908 1547.55 712.23 1543.42 700.874C1539.37 689.518 1537.35 676.7 1537.35 662.419C1537.35 648.225 1539.37 635.449 1543.42 624.094C1547.55 612.652 1553.27 602.931 1560.58 594.93C1567.98 586.929 1576.75 580.778 1586.9 576.477C1597.14 572.175 1608.41 570.025 1620.71 570.025C1633.1 570.025 1644.41 572.175 1654.65 576.477C1664.89 580.692 1673.66 586.8 1680.98 594.801C1688.38 602.802 1694.1 612.523 1698.14 623.965C1702.27 635.32 1704.33 648.139 1704.33 662.419ZM1700.98 662.419C1700.98 648.397 1699 635.837 1695.04 624.739C1691.17 613.641 1685.71 604.221 1678.65 596.479C1671.6 588.736 1663.13 582.843 1653.23 578.8C1643.43 574.67 1632.59 572.606 1620.71 572.606C1609.01 572.606 1598.26 574.67 1588.45 578.8C1578.65 582.843 1570.17 588.736 1563.03 596.479C1555.98 604.221 1550.43 613.641 1546.39 624.739C1542.43 635.837 1540.45 648.397 1540.45 662.419C1540.45 676.442 1542.43 689.002 1546.39 700.1C1550.43 711.111 1555.98 720.489 1563.03 728.231C1570.17 735.888 1578.65 741.781 1588.45 745.91C1598.26 749.953 1609.01 751.975 1620.71 751.975C1632.59 751.975 1643.43 749.953 1653.23 745.91C1663.13 741.781 1671.6 735.888 1678.65 728.231C1685.71 720.489 1691.17 711.111 1695.04 700.1C1699 689.002 1700.98 676.442 1700.98 662.419Z" fill="white"/>
<path d="M1910.98 572.089V752.749H1910.2C1909.69 752.749 1909.21 752.448 1908.78 751.846L1780.26 576.864C1780.34 577.466 1780.39 578.025 1780.39 578.542C1780.39 579.058 1780.39 579.574 1780.39 580.09V752.749H1777.81V572.089H1778.84C1779.61 572.089 1780.21 572.434 1780.64 573.122L1908.53 747.2C1908.44 746.77 1908.4 746.34 1908.4 745.91C1908.4 745.394 1908.4 744.921 1908.4 744.491V572.089H1910.98Z" fill="white"/>
<path d="M550.938 572.089V752.749H550.163C549.647 752.749 549.174 752.448 548.744 751.846L420.217 576.864C420.303 577.466 420.346 578.025 420.346 578.542C420.346 579.058 420.346 579.574 420.346 580.09V752.749H417.766V572.089H418.798C419.572 572.089 420.174 572.434 420.605 573.122L548.486 747.2C548.4 746.77 548.357 746.34 548.357 745.91C548.357 745.394 548.357 744.921 548.357 744.491V572.089H550.938Z" stroke="white" stroke-width="24.088" mask="url(#path-4-outside-2_817_46)"/>
<path d="M699.607 752.233C709.328 752.233 718.017 750.513 725.674 747.071C733.416 743.544 739.954 738.77 745.288 732.748C750.622 726.726 754.708 719.671 757.547 711.585C760.386 703.498 761.806 694.852 761.806 685.647V572.089H764.903V685.647C764.903 695.196 763.397 704.186 760.386 712.617C757.375 721.048 753.031 728.403 747.353 734.683C741.675 740.963 734.793 745.953 726.706 749.652C718.705 753.265 709.672 755.072 699.607 755.072C689.542 755.072 680.466 753.265 672.379 749.652C664.378 745.953 657.539 740.963 651.861 734.683C646.183 728.403 641.839 721.048 638.828 712.617C635.817 704.186 634.311 695.196 634.311 685.647V572.089H637.408V685.389C637.408 694.594 638.828 703.283 641.667 711.456C644.506 719.542 648.592 726.64 653.926 732.748C659.26 738.77 665.755 743.544 673.411 747.071C681.154 750.513 689.886 752.233 699.607 752.233Z" stroke="white" stroke-width="24.088" mask="url(#path-4-outside-2_817_46)"/>
<path d="M961.364 574.928H893.488V752.749H890.391V574.928H821.998V572.089H961.364V574.928Z" stroke="white" stroke-width="24.088" mask="url(#path-4-outside-2_817_46)"/>
<path d="M1024.04 662.936H1060.43C1069.29 662.936 1077.25 661.903 1084.3 659.838C1091.44 657.688 1097.5 654.677 1102.49 650.806C1107.57 646.848 1111.44 642.074 1114.11 636.482C1116.86 630.804 1118.24 624.395 1118.24 617.254C1118.24 602.544 1113.46 591.79 1103.91 584.994C1094.36 578.111 1080.64 574.67 1062.75 574.67H1024.04V662.936ZM1137.59 752.749H1135.53C1134.84 752.749 1134.28 752.706 1133.85 752.62C1133.42 752.448 1132.86 751.975 1132.17 751.201L1064.56 670.162C1063.87 669.302 1063.14 668.57 1062.36 667.968C1061.67 667.366 1060.86 666.893 1059.91 666.549C1059.05 666.119 1057.97 665.86 1056.68 665.774C1055.48 665.602 1053.97 665.516 1052.17 665.516H1024.04V752.749H1020.94V572.089H1062.75C1081.59 572.089 1096.04 575.746 1106.11 583.058C1116.26 590.371 1121.33 601.769 1121.33 617.254C1121.33 624.567 1119.92 631.191 1117.08 637.127C1114.24 642.977 1110.24 647.967 1105.08 652.096C1099.91 656.225 1093.72 659.451 1086.49 661.774C1079.35 664.097 1071.44 665.344 1062.75 665.516C1063.61 665.86 1064.38 666.334 1065.07 666.936C1065.76 667.452 1066.45 668.097 1067.14 668.871L1137.59 752.749Z" stroke="white" stroke-width="24.088" mask="url(#path-4-outside-2_817_46)"/>
<path d="M1202.33 752.749H1199.23V572.089H1202.33V752.749Z" stroke="white" stroke-width="24.088" mask="url(#path-4-outside-2_817_46)"/>
<path d="M1401.22 574.928H1333.34V752.749H1330.24V574.928H1261.85V572.089H1401.22V574.928Z" stroke="white" stroke-width="24.088" mask="url(#path-4-outside-2_817_46)"/>
<path d="M1463.89 752.749H1460.79V572.089H1463.89V752.749Z" stroke="white" stroke-width="24.088" mask="url(#path-4-outside-2_817_46)"/>
<path d="M1704.33 662.419C1704.33 676.7 1702.27 689.518 1698.14 700.874C1694.1 712.23 1688.38 721.908 1680.98 729.909C1673.66 737.823 1664.89 743.931 1654.65 748.233C1644.41 752.448 1633.1 754.556 1620.71 754.556C1608.41 754.556 1597.14 752.448 1586.9 748.233C1576.75 743.931 1567.98 737.823 1560.58 729.909C1553.27 721.908 1547.55 712.23 1543.42 700.874C1539.37 689.518 1537.35 676.7 1537.35 662.419C1537.35 648.225 1539.37 635.449 1543.42 624.094C1547.55 612.652 1553.27 602.931 1560.58 594.93C1567.98 586.929 1576.75 580.778 1586.9 576.477C1597.14 572.175 1608.41 570.025 1620.71 570.025C1633.1 570.025 1644.41 572.175 1654.65 576.477C1664.89 580.692 1673.66 586.8 1680.98 594.801C1688.38 602.802 1694.1 612.523 1698.14 623.965C1702.27 635.32 1704.33 648.139 1704.33 662.419ZM1700.98 662.419C1700.98 648.397 1699 635.837 1695.04 624.739C1691.17 613.641 1685.71 604.221 1678.65 596.479C1671.6 588.736 1663.13 582.843 1653.23 578.8C1643.43 574.67 1632.59 572.606 1620.71 572.606C1609.01 572.606 1598.26 574.67 1588.45 578.8C1578.65 582.843 1570.17 588.736 1563.03 596.479C1555.98 604.221 1550.43 613.641 1546.39 624.739C1542.43 635.837 1540.45 648.397 1540.45 662.419C1540.45 676.442 1542.43 689.002 1546.39 700.1C1550.43 711.111 1555.98 720.489 1563.03 728.231C1570.17 735.888 1578.65 741.781 1588.45 745.91C1598.26 749.953 1609.01 751.975 1620.71 751.975C1632.59 751.975 1643.43 749.953 1653.23 745.91C1663.13 741.781 1671.6 735.888 1678.65 728.231C1685.71 720.489 1691.17 711.111 1695.04 700.1C1699 689.002 1700.98 676.442 1700.98 662.419Z" stroke="white" stroke-width="24.088" mask="url(#path-4-outside-2_817_46)"/>
<path d="M1910.98 572.089V752.749H1910.2C1909.69 752.749 1909.21 752.448 1908.78 751.846L1780.26 576.864C1780.34 577.466 1780.39 578.025 1780.39 578.542C1780.39 579.058 1780.39 579.574 1780.39 580.09V752.749H1777.81V572.089H1778.84C1779.61 572.089 1780.21 572.434 1780.64 573.122L1908.53 747.2C1908.44 746.77 1908.4 746.34 1908.4 745.91C1908.4 745.394 1908.4 744.921 1908.4 744.491V572.089H1910.98Z" stroke="white" stroke-width="24.088" mask="url(#path-4-outside-2_817_46)"/>
</svg>
