<svg width="3651" height="1081" viewBox="0 0 3651 1081" fill="none" xmlns="http://www.w3.org/2000/svg">
<path d="M146.723 375.629C122.038 406.694 -6.50132 635.81 0.349975 635.108L61.893 666.711L26.9632 723.264C230.894 739.977 300.908 806.783 389.258 976.09C378.213 991.457 389.304 1025.49 395.957 1033.8C402.611 1042.12 432.727 1054.92 456.101 1054.27C460.953 1056.28 465.486 1058.2 469.779 1060.02C500.521 1073.06 518.978 1080.88 554.237 1080.88C589.497 1080.88 607.954 1073.06 638.696 1060.02C642.989 1058.2 647.522 1056.28 652.374 1054.27C675.748 1054.92 705.864 1042.12 712.518 1033.8C719.171 1025.49 730.262 991.457 719.217 976.09C807.567 806.783 884.79 739.977 1088.72 723.264L1055.73 660.658L1121.71 635.108C1128.56 635.81 994.489 396.213 969.805 365.147C960.448 353.372 967.839 316.774 986.269 260.588C1016.46 168.549 1054.67 52.0741 1005 26.3307C925.013 -15.1277 842.201 -11.2851 554.238 78.0469C266.274 -11.2851 183.462 -15.1277 103.476 26.3307C53.8094 52.0741 92.0154 168.549 122.206 260.588C140.636 316.774 156.079 363.853 146.723 375.629Z" fill="black"/>
<path d="M140.8 74.4386C136.911 63.6019 144.869 52.8484 156.3 54.228C177.635 56.8028 220.48 62.5593 285.346 75.6834C283.139 71.3877 281.179 68.1486 279.521 66.1712C258.563 41.1636 539.183 134.186 556.465 139.932C573.747 134.186 854.367 41.1636 833.409 66.1712C831.752 68.1486 829.791 71.3877 827.584 75.6834C892.45 62.5593 935.296 56.8028 956.63 54.228C968.061 52.8484 976.02 63.6019 972.13 74.4386L845.052 303.607C928.704 401.01 997.409 485.514 1049.64 603.006L988.098 651.242L1016.37 671.202C815.177 698.874 740.441 827.907 683.71 948.978C635.037 974.871 564.863 952.143 556.465 949.268C548.068 952.143 477.893 974.871 429.221 948.978C381.931 829.506 306.731 700.341 96.5556 671.202L124.832 651.242L63.2891 603.006L230.128 323.306L140.8 74.4386Z" fill="url(#paint0_linear_216_6403)"/>
<path fill-rule="evenodd" clip-rule="evenodd" d="M230.128 323.306L63.2891 603.006L124.832 651.242L96.5556 671.202C283.286 697.09 412.587 912.384 412.587 912.384C412.587 912.384 428.6 925.311 440.864 929.018C476.817 939.882 519.993 921.168 534.01 887.434C538.072 869.835 540.664 854.535 540.664 835.871C541.138 832.66 540.218 830.408 540.664 827.555C536.177 824.806 527.777 818.324 521.593 814.951C514.508 809.278 512.098 773.613 510.724 771.002C506.054 770.027 499.493 795.377 499.08 798.222C495.104 794.565 493.283 791.251 488.802 787.873C481.331 782.242 473.277 776.171 465.04 766.901C484.388 753.023 501.696 742.793 518.526 736.492C471.826 736.215 444.324 740.713 393.558 754.746C433.625 726.348 462.817 714.213 526.583 699.479C506.302 676.75 418.097 618.35 216.315 570.299C260.869 398.361 336.776 296.193 470.804 183.848C436.805 123.961 294.661 75.2577 201.345 50.7815C-1.58062 -2.44444 216.315 243.726 230.128 323.306ZM499.08 798.222C499.035 798.536 501.516 798.494 501.633 798.222H499.08Z" fill="url(#paint1_linear_216_6403)"/>
<path d="M597.217 150.582L472.467 240.401C499.433 208.432 272.651 83.4069 272.868 59.098C290.482 36.3281 472.897 110.035 597.217 150.582Z" fill="url(#paint2_linear_216_6403)"/>
<path d="M665.413 962.284C665.413 998.111 616.263 1027.15 555.634 1027.15C495.004 1027.15 445.854 998.111 445.854 962.284C445.854 926.457 495.004 925.691 555.634 925.691C616.263 925.691 665.413 926.457 665.413 962.284Z" fill="url(#paint3_linear_216_6403)"/>
<path d="M628.82 534.817C628.82 548.931 652.107 539.807 678.72 546.46C705.333 553.113 702.007 551.773 758.56 558.103C815.113 564.433 846.716 508.38 846.716 483.577C846.716 458.774 796.816 456.64 751.906 456.64C692.195 456.64 648.78 505.2 628.82 534.817Z" fill="black"/>
<path d="M656.047 525.991C763.287 552.69 804.014 546.291 830.083 483.577C767.724 457.887 700.063 474.865 656.047 525.991Z" fill="white"/>
<path d="M705.266 506.386C706.099 532.094 727.615 552.259 753.323 551.426C779.031 550.594 799.196 529.078 798.363 503.37C797.53 477.662 776.015 457.496 750.307 458.329C724.598 459.162 704.433 480.678 705.266 506.386Z" fill="black"/>
<path d="M739.372 649.086C751.133 538.816 743.215 477.331 707.445 368.187C778.726 472.508 785.994 534.16 739.372 649.086Z" fill="black"/>
<path d="M735.25 474.926C744.735 472.414 751.83 471.623 761.863 471.6C767.823 498.126 769.408 513.038 768.517 539.796L743.567 541.459C743.289 514.133 740.065 498.191 735.25 474.926Z" fill="url(#paint4_linear_216_6403)"/>
<path d="M215.275 152.01C215.566 114.271 215.701 96.6885 184.496 135.843C119.684 217.166 139.324 281.471 183.856 399.339C184.214 398.028 184.575 396.73 184.938 395.445L184.463 399.324L259.731 282.627C235.194 243.649 214.916 198.743 215.275 152.01Z" fill="black"/>
<path d="M297.323 202.774C305.743 197.486 313.758 195.43 304.017 217.273C294.276 239.115 232.351 325.641 232.351 325.641C232.351 325.641 215.825 320.737 210.351 311.264C193.429 281.983 288.902 208.061 297.323 202.774Z" fill="black"/>
<path d="M859.54 151.47C854.34 114.09 851.917 96.6748 887.953 131.434C962.799 203.63 951.696 269.944 922.885 392.606C922.359 391.352 921.832 390.113 921.306 388.886L922.281 392.67L832.464 286.762C851.719 244.922 865.979 197.759 859.54 151.47Z" fill="black"/>
<path d="M784.798 212.482C775.761 208.335 767.547 207.34 780.048 227.729C792.549 248.117 865.21 325.847 865.21 325.847C865.21 325.847 880.957 318.834 885.152 308.728C898.118 277.494 793.835 216.628 784.798 212.482Z" fill="black"/>
<path d="M494.075 534.811C494.075 548.925 470.789 539.801 444.176 546.454C417.562 553.107 420.889 551.767 364.336 558.097C307.783 564.428 276.18 508.374 276.18 483.571C276.18 458.768 326.079 456.634 370.989 456.635C430.7 456.635 474.115 505.194 494.075 534.811Z" fill="black"/>
<path d="M466.849 525.986C359.609 552.685 318.882 546.286 292.813 483.571C355.171 457.882 422.833 474.86 466.849 525.986Z" fill="white"/>
<path d="M420.889 506.534C420.889 532.256 400.038 553.108 374.316 553.108C348.594 553.108 327.743 532.256 327.743 506.534C327.743 480.813 348.594 459.961 374.316 459.961C400.038 459.961 420.889 480.813 420.889 506.534Z" fill="black"/>
<path d="M443.274 490.562C410.616 468.527 395.242 453.639 375.979 420.039" stroke="black" stroke-width="13.3066" stroke-linecap="round"/>
<path d="M328.246 585.814C303.605 555.074 293.347 536.291 284.932 498.487" stroke="black" stroke-width="13.3066" stroke-linecap="round"/>
<path d="M555.604 782.642C555.604 782.642 555.604 876.921 555.604 937.331C604.371 939.773 608.921 967.271 608.921 967.271C608.921 967.271 682.737 959.353 687.007 955.628C695.674 946.957 707.527 917.09 708.63 904.065C704.926 905.501 695.592 922.046 672.037 925.688C632.993 932.91 589.581 919.502 575.564 885.768C560.594 820.899 579.519 796.938 555.604 782.642Z" fill="black"/>
<path d="M555.604 782.642C555.604 782.642 555.604 876.921 555.604 937.331C509.635 938.694 502.288 967.271 502.288 967.271C502.288 967.271 428.472 959.353 424.201 955.628C415.534 946.957 403.681 917.09 402.578 904.065C410.145 907.455 421.718 923.843 439.171 927.351C478.215 934.574 519.964 919.502 533.981 885.768C548.951 820.899 531.689 796.938 555.604 782.642Z" fill="black"/>
<path d="M555.604 838.784C569.394 828.454 581.117 820.335 592.197 813.34C597.582 809.597 594.508 775.673 597.187 772.251C601.94 768.115 612.099 797.109 613.82 795.834C624.904 786.19 635.889 775.555 648.75 762.271C569.828 715.128 527.769 720.417 462.458 767.261C475.677 782.138 488.425 788.775 499.051 798.582C497.869 801.319 505.51 771.169 510.694 772.251C512.068 774.862 511.925 809.638 519.011 815.311C537.639 825.47 547.306 832.308 555.604 838.784Z" fill="black"/>
<path d="M451.64 998.569C455.255 973.182 455.036 975.745 454.49 963.119C453.745 955.003 452.859 944.492 452.473 940.64C450.008 916.06 486.634 942.085 508.349 941.203C527.798 939.8 443.207 1066.56 451.64 998.569Z" fill="black"/>
<path d="M659.568 998.569C655.953 973.182 656.172 975.745 656.718 963.119C657.463 955.003 658.349 944.492 658.735 940.64C661.201 916.06 624.574 942.085 602.859 941.203C583.41 939.8 668.002 1066.56 659.568 998.569Z" fill="black"/>
<path d="M444.426 988.255C446.323 975.156 446.217 976.48 445.792 969.945C445.289 965.741 444.684 960.298 444.426 958.302C442.78 945.569 464.382 959.336 477.053 959.062C488.396 958.5 440.073 1023.35 444.426 988.255Z" fill="white"/>
<path d="M667.066 988.256C665.169 975.156 665.275 976.48 665.7 969.946C666.203 965.742 666.808 960.298 667.066 958.302C668.712 945.569 647.11 959.337 634.44 959.062C623.096 958.5 671.419 1023.35 667.066 988.256Z" fill="white"/>
<line x1="1322.13" y1="651.65" x2="3650.88" y2="661.143" stroke="white" stroke-width="23.732"/>
<path fill-rule="evenodd" clip-rule="evenodd" d="M1914.31 529.064C1915.74 531.773 1915.08 535.123 1912.68 537.014C1879 563.443 1836.98 579.131 1791.42 579.131C1680.67 579.131 1590.89 486.457 1590.89 372.138C1590.89 257.818 1680.67 165.144 1791.42 165.144C1837.21 165.144 1879.41 180.987 1913.17 207.652C1915.58 209.555 1916.23 212.917 1914.78 215.623L1875.17 289.558C1873.26 293.126 1868.58 294.069 1865.23 291.796C1849.71 281.265 1830.98 275.112 1810.81 275.112C1757.23 275.112 1713.78 318.553 1713.78 372.14C1713.78 425.727 1757.23 469.168 1810.81 469.168C1830.95 469.168 1849.66 463.032 1865.16 452.528C1868.53 450.249 1873.23 451.213 1875.12 454.806L1914.31 529.064ZM1388.61 196.926C1388.1 193.609 1390.2 190.398 1393.47 189.621C1442.68 177.911 1475.81 175.027 1534.44 174.854C1537.5 174.845 1540.16 177.029 1540.78 180.027C1569.84 320.943 1567.62 413.598 1540.62 561.23C1540.09 564.13 1537.65 566.34 1534.71 566.539C1489.35 569.609 1461.67 569.52 1416.65 566.612C1413.14 566.385 1410.46 563.346 1410.6 559.837C1416.53 417.085 1410.19 336.712 1388.61 196.926ZM1950.95 178.09C1947.37 178.09 1944.48 180.986 1944.48 184.559V566.203C1944.48 569.776 1947.37 572.672 1950.95 572.672L2222.62 572.672C2226.2 572.672 2229.09 569.776 2229.09 566.203V475.644C2229.09 472.071 2226.2 469.175 2222.62 469.175L2073.85 469.175C2070.28 469.175 2067.38 466.279 2067.38 462.706V423.895C2067.38 420.323 2070.28 417.427 2073.85 417.427H2177.76C2181.17 417.427 2183.99 414.786 2184.22 411.388L2189.82 327.297C2190.07 323.564 2187.11 320.398 2183.37 320.398H2073.85C2070.28 320.398 2067.38 317.502 2067.38 313.93V278.353C2067.38 274.78 2070.28 271.884 2073.85 271.884H2216.16C2219.73 271.884 2222.62 268.988 2222.62 265.416V184.559C2222.62 180.986 2219.73 178.09 2216.16 178.09L1950.95 178.09ZM2312.72 184.548C2312.72 180.975 2315.61 178.079 2319.19 178.079L2425.92 178.079C2429.49 178.079 2432.39 180.975 2432.39 184.547V452.992C2432.39 456.565 2435.28 459.461 2438.85 459.461H2539.12C2542.69 459.461 2545.59 462.357 2545.59 465.93V566.192C2545.59 569.765 2542.69 572.661 2539.12 572.661H2319.19C2315.61 572.661 2312.72 569.765 2312.72 566.192V184.548ZM2688.72 178.09C2685.91 178.09 2683.42 179.909 2682.56 182.589L2560.56 564.234C2559.22 568.408 2562.34 572.672 2566.72 572.672H2679.18C2682.04 572.672 2684.56 570.795 2685.38 568.055L2752.32 343.942C2754.15 337.824 2762.79 337.772 2764.69 343.868L2834.59 568.128C2835.43 570.831 2837.94 572.672 2840.77 572.672H2950.12C2954.48 572.672 2957.59 568.444 2956.3 564.28L2837.42 182.635C2836.58 179.932 2834.08 178.09 2831.25 178.09H2688.72ZM2970.79 182.836L3174.55 182.836C3300.98 188.035 3299.49 357.085 3231.15 376.893C3316.86 402.767 3307.16 570.949 3174.55 570.949H2970.79V182.836ZM3087.25 286.333H3139C3149.95 286.029 3164.87 321.911 3139 334.848L3087.25 334.848V286.333ZM3142.23 415.698H3087.25V470.683H3142.23C3171.34 464.212 3171.34 422.167 3142.23 415.698ZM3577.59 218.724C3578.94 215.815 3577.96 212.348 3575.25 210.64C3462.15 139.477 3298.56 147.828 3298.56 297.751C3300.84 335.631 3308.05 355.119 3336.53 384.214C3337.08 384.779 3337.74 385.244 3338.46 385.571L3443.65 433.383C3443.95 433.521 3444.25 433.688 3444.53 433.875C3465.83 448.191 3459.54 467.612 3440.87 469.168C3404.26 472.218 3381.91 463.914 3349.76 446.531C3346.53 444.783 3342.47 446.034 3340.83 449.322L3301.02 528.93C3299.6 531.768 3300.45 535.225 3303.05 537.044C3344.98 566.374 3375.59 574.856 3437.64 575.899C3531.43 575.899 3580.49 533.853 3579.94 449.762C3579.72 415.362 3573.16 396.898 3547.6 365.671C3539.1 355.466 3514.63 345.852 3488.09 335.426C3465.12 326.404 3440.61 316.773 3423.56 305.627C3422.19 304.731 3421.23 303.246 3420.96 301.632C3412.64 251.916 3502.87 287.062 3531.73 301.043C3535.12 302.688 3539.26 301.295 3540.84 297.873L3577.59 218.724Z" fill="white"/>
<mask id="path-15-outside-1_216_6403" maskUnits="userSpaceOnUse" x="1726.84" y="722.169" width="1519" height="211" fill="black">
<rect fill="white" x="1726.84" y="722.169" width="1519" height="211"/>
<path d="M1873.02 737.233V917.893H1872.24C1871.73 917.893 1871.25 917.592 1870.82 916.99L1742.3 742.008C1742.38 742.61 1742.42 743.169 1742.42 743.686C1742.42 744.202 1742.42 744.718 1742.42 745.234V917.893H1739.84V737.233H1740.88C1741.65 737.233 1742.25 737.578 1742.68 738.266L1870.56 912.344C1870.48 911.914 1870.43 911.484 1870.43 911.054C1870.43 910.538 1870.43 910.065 1870.43 909.635V737.233H1873.02Z"/>
<path d="M2021.69 917.377C2031.41 917.377 2040.1 915.657 2047.75 912.215C2055.49 908.688 2062.03 903.914 2067.37 897.892C2072.7 891.87 2076.79 884.815 2079.63 876.729C2082.46 868.642 2083.88 859.996 2083.88 850.791V737.233H2086.98V850.791C2086.98 860.34 2085.48 869.33 2082.46 877.761C2079.45 886.192 2075.11 893.547 2069.43 899.827C2063.75 906.107 2056.87 911.097 2048.78 914.796C2040.78 918.409 2031.75 920.216 2021.69 920.216C2011.62 920.216 2002.54 918.409 1994.46 914.796C1986.46 911.097 1979.62 906.107 1973.94 899.827C1968.26 893.547 1963.92 886.192 1960.91 877.761C1957.89 869.33 1956.39 860.34 1956.39 850.791V737.233H1959.49V850.533C1959.49 859.738 1960.91 868.427 1963.74 876.6C1966.58 884.686 1970.67 891.784 1976 897.892C1981.34 903.914 1987.83 908.688 1995.49 912.215C2003.23 915.657 2011.96 917.377 2021.69 917.377Z"/>
<path d="M2283.44 740.072H2215.57V917.893H2212.47V740.072H2144.08V737.233H2283.44V740.072Z"/>
<path d="M2346.11 828.08H2382.5C2391.37 828.08 2399.32 827.047 2406.38 824.983C2413.52 822.832 2419.58 819.821 2424.57 815.95C2429.65 811.992 2433.52 807.218 2436.19 801.626C2438.94 795.948 2440.32 789.539 2440.32 782.398C2440.32 767.688 2435.54 756.934 2425.99 750.138C2416.44 743.255 2402.72 739.814 2384.83 739.814H2346.11V828.08ZM2459.67 917.893H2457.61C2456.92 917.893 2456.36 917.85 2455.93 917.764C2455.5 917.592 2454.94 917.119 2454.25 916.345L2386.63 835.306C2385.95 834.446 2385.21 833.714 2384.44 833.112C2383.75 832.51 2382.93 832.037 2381.99 831.693C2381.13 831.263 2380.05 831.005 2378.76 830.919C2377.56 830.746 2376.05 830.66 2374.25 830.66H2346.11V917.893H2343.02V737.233H2384.83C2403.67 737.233 2418.12 740.89 2428.19 748.202C2438.34 755.515 2443.41 766.913 2443.41 782.398C2443.41 789.711 2441.99 796.335 2439.15 802.271C2436.32 808.121 2432.32 813.111 2427.15 817.24C2421.99 821.369 2415.8 824.595 2408.57 826.918C2401.43 829.241 2393.52 830.488 2384.83 830.66C2385.69 831.005 2386.46 831.478 2387.15 832.08C2387.84 832.596 2388.53 833.241 2389.21 834.016L2459.67 917.893Z"/>
<path d="M2524.41 917.893H2521.31V737.233H2524.41V917.893Z"/>
<path d="M2723.3 740.072H2655.42V917.893H2652.32V740.072H2583.93V737.233H2723.3V740.072Z"/>
<path d="M2785.97 917.893H2782.87V737.233H2785.97V917.893Z"/>
<path d="M3026.41 827.563C3026.41 841.844 3024.35 854.662 3020.22 866.018C3016.17 877.374 3010.45 887.052 3003.05 895.053C2995.74 902.967 2986.97 909.075 2976.73 913.377C2966.49 917.592 2955.18 919.7 2942.79 919.7C2930.49 919.7 2919.22 917.592 2908.98 913.377C2898.83 909.075 2890.06 902.967 2882.66 895.053C2875.35 887.052 2869.62 877.374 2865.5 866.018C2861.45 854.662 2859.43 841.844 2859.43 827.563C2859.43 813.369 2861.45 800.593 2865.5 789.238C2869.62 777.796 2875.35 768.075 2882.66 760.074C2890.06 752.073 2898.83 745.922 2908.98 741.621C2919.22 737.32 2930.49 735.169 2942.79 735.169C2955.18 735.169 2966.49 737.32 2976.73 741.621C2986.97 745.836 2995.74 751.944 3003.05 759.945C3010.45 767.946 3016.17 777.667 3020.22 789.109C3024.35 800.464 3026.41 813.283 3026.41 827.563ZM3023.06 827.563C3023.06 813.541 3021.08 800.981 3017.12 789.883C3013.25 778.785 3007.79 769.365 3000.73 761.623C2993.68 753.88 2985.2 747.987 2975.31 743.944C2965.5 739.814 2954.66 737.75 2942.79 737.75C2931.09 737.75 2920.34 739.814 2910.53 743.944C2900.72 747.987 2892.25 753.88 2885.11 761.623C2878.06 769.365 2872.51 778.785 2868.46 789.883C2864.51 800.981 2862.53 813.541 2862.53 827.563C2862.53 841.586 2864.51 854.146 2868.46 865.244C2872.51 876.256 2878.06 885.633 2885.11 893.375C2892.25 901.032 2900.72 906.925 2910.53 911.054C2920.34 915.097 2931.09 917.119 2942.79 917.119C2954.66 917.119 2965.5 915.097 2975.31 911.054C2985.2 906.925 2993.68 901.032 3000.73 893.375C3007.79 885.633 3013.25 876.256 3017.12 865.244C3021.08 854.146 3023.06 841.586 3023.06 827.563Z"/>
<path d="M3233.06 737.233V917.893H3232.28C3231.76 917.893 3231.29 917.592 3230.86 916.99L3102.33 742.008C3102.42 742.61 3102.46 743.169 3102.46 743.686C3102.46 744.202 3102.46 744.718 3102.46 745.234V917.893H3099.88V737.233H3100.92C3101.69 737.233 3102.29 737.578 3102.72 738.266L3230.6 912.344C3230.52 911.914 3230.47 911.484 3230.47 911.054C3230.47 910.538 3230.47 910.065 3230.47 909.635V737.233H3233.06Z"/>
</mask>
<path d="M1873.02 737.233V917.893H1872.24C1871.73 917.893 1871.25 917.592 1870.82 916.99L1742.3 742.008C1742.38 742.61 1742.42 743.169 1742.42 743.686C1742.42 744.202 1742.42 744.718 1742.42 745.234V917.893H1739.84V737.233H1740.88C1741.65 737.233 1742.25 737.578 1742.68 738.266L1870.56 912.344C1870.48 911.914 1870.43 911.484 1870.43 911.054C1870.43 910.538 1870.43 910.065 1870.43 909.635V737.233H1873.02Z" fill="white"/>
<path d="M2021.69 917.377C2031.41 917.377 2040.1 915.657 2047.75 912.215C2055.49 908.688 2062.03 903.914 2067.37 897.892C2072.7 891.87 2076.79 884.815 2079.63 876.729C2082.46 868.642 2083.88 859.996 2083.88 850.791V737.233H2086.98V850.791C2086.98 860.34 2085.48 869.33 2082.46 877.761C2079.45 886.192 2075.11 893.547 2069.43 899.827C2063.75 906.107 2056.87 911.097 2048.78 914.796C2040.78 918.409 2031.75 920.216 2021.69 920.216C2011.62 920.216 2002.54 918.409 1994.46 914.796C1986.46 911.097 1979.62 906.107 1973.94 899.827C1968.26 893.547 1963.92 886.192 1960.91 877.761C1957.89 869.33 1956.39 860.34 1956.39 850.791V737.233H1959.49V850.533C1959.49 859.738 1960.91 868.427 1963.74 876.6C1966.58 884.686 1970.67 891.784 1976 897.892C1981.34 903.914 1987.83 908.688 1995.49 912.215C2003.23 915.657 2011.96 917.377 2021.69 917.377Z" fill="white"/>
<path d="M2283.44 740.072H2215.57V917.893H2212.47V740.072H2144.08V737.233H2283.44V740.072Z" fill="white"/>
<path d="M2346.11 828.08H2382.5C2391.37 828.08 2399.32 827.047 2406.38 824.983C2413.52 822.832 2419.58 819.821 2424.57 815.95C2429.65 811.992 2433.52 807.218 2436.19 801.626C2438.94 795.948 2440.32 789.539 2440.32 782.398C2440.32 767.688 2435.54 756.934 2425.99 750.138C2416.44 743.255 2402.72 739.814 2384.83 739.814H2346.11V828.08ZM2459.67 917.893H2457.61C2456.92 917.893 2456.36 917.85 2455.93 917.764C2455.5 917.592 2454.94 917.119 2454.25 916.345L2386.63 835.306C2385.95 834.446 2385.21 833.714 2384.44 833.112C2383.75 832.51 2382.93 832.037 2381.99 831.693C2381.13 831.263 2380.05 831.005 2378.76 830.919C2377.56 830.746 2376.05 830.66 2374.25 830.66H2346.11V917.893H2343.02V737.233H2384.83C2403.67 737.233 2418.12 740.89 2428.19 748.202C2438.34 755.515 2443.41 766.913 2443.41 782.398C2443.41 789.711 2441.99 796.335 2439.15 802.271C2436.32 808.121 2432.32 813.111 2427.15 817.24C2421.99 821.369 2415.8 824.595 2408.57 826.918C2401.43 829.241 2393.52 830.488 2384.83 830.66C2385.69 831.005 2386.46 831.478 2387.15 832.08C2387.84 832.596 2388.53 833.241 2389.21 834.016L2459.67 917.893Z" fill="white"/>
<path d="M2524.41 917.893H2521.31V737.233H2524.41V917.893Z" fill="white"/>
<path d="M2723.3 740.072H2655.42V917.893H2652.32V740.072H2583.93V737.233H2723.3V740.072Z" fill="white"/>
<path d="M2785.97 917.893H2782.87V737.233H2785.97V917.893Z" fill="white"/>
<path d="M3026.41 827.563C3026.41 841.844 3024.35 854.662 3020.22 866.018C3016.17 877.374 3010.45 887.052 3003.05 895.053C2995.74 902.967 2986.97 909.075 2976.73 913.377C2966.49 917.592 2955.18 919.7 2942.79 919.7C2930.49 919.7 2919.22 917.592 2908.98 913.377C2898.83 909.075 2890.06 902.967 2882.66 895.053C2875.35 887.052 2869.62 877.374 2865.5 866.018C2861.45 854.662 2859.43 841.844 2859.43 827.563C2859.43 813.369 2861.45 800.593 2865.5 789.238C2869.62 777.796 2875.35 768.075 2882.66 760.074C2890.06 752.073 2898.83 745.922 2908.98 741.621C2919.22 737.32 2930.49 735.169 2942.79 735.169C2955.18 735.169 2966.49 737.32 2976.73 741.621C2986.97 745.836 2995.74 751.944 3003.05 759.945C3010.45 767.946 3016.17 777.667 3020.22 789.109C3024.35 800.464 3026.41 813.283 3026.41 827.563ZM3023.06 827.563C3023.06 813.541 3021.08 800.981 3017.12 789.883C3013.25 778.785 3007.79 769.365 3000.73 761.623C2993.68 753.88 2985.2 747.987 2975.31 743.944C2965.5 739.814 2954.66 737.75 2942.79 737.75C2931.09 737.75 2920.34 739.814 2910.53 743.944C2900.72 747.987 2892.25 753.88 2885.11 761.623C2878.06 769.365 2872.51 778.785 2868.46 789.883C2864.51 800.981 2862.53 813.541 2862.53 827.563C2862.53 841.586 2864.51 854.146 2868.46 865.244C2872.51 876.256 2878.06 885.633 2885.11 893.375C2892.25 901.032 2900.72 906.925 2910.53 911.054C2920.34 915.097 2931.09 917.119 2942.79 917.119C2954.66 917.119 2965.5 915.097 2975.31 911.054C2985.2 906.925 2993.68 901.032 3000.73 893.375C3007.79 885.633 3013.25 876.256 3017.12 865.244C3021.08 854.146 3023.06 841.586 3023.06 827.563Z" fill="white"/>
<path d="M3233.06 737.233V917.893H3232.28C3231.76 917.893 3231.29 917.592 3230.86 916.99L3102.33 742.008C3102.42 742.61 3102.46 743.169 3102.46 743.686C3102.46 744.202 3102.46 744.718 3102.46 745.234V917.893H3099.88V737.233H3100.92C3101.69 737.233 3102.29 737.578 3102.72 738.266L3230.6 912.344C3230.52 911.914 3230.47 911.484 3230.47 911.054C3230.47 910.538 3230.47 910.065 3230.47 909.635V737.233H3233.06Z" fill="white"/>
<path d="M1873.02 737.233V917.893H1872.24C1871.73 917.893 1871.25 917.592 1870.82 916.99L1742.3 742.008C1742.38 742.61 1742.42 743.169 1742.42 743.686C1742.42 744.202 1742.42 744.718 1742.42 745.234V917.893H1739.84V737.233H1740.88C1741.65 737.233 1742.25 737.578 1742.68 738.266L1870.56 912.344C1870.48 911.914 1870.43 911.484 1870.43 911.054C1870.43 910.538 1870.43 910.065 1870.43 909.635V737.233H1873.02Z" stroke="white" stroke-width="24.088" mask="url(#path-15-outside-1_216_6403)"/>
<path d="M2021.69 917.377C2031.41 917.377 2040.1 915.657 2047.75 912.215C2055.49 908.688 2062.03 903.914 2067.37 897.892C2072.7 891.87 2076.79 884.815 2079.63 876.729C2082.46 868.642 2083.88 859.996 2083.88 850.791V737.233H2086.98V850.791C2086.98 860.34 2085.48 869.33 2082.46 877.761C2079.45 886.192 2075.11 893.547 2069.43 899.827C2063.75 906.107 2056.87 911.097 2048.78 914.796C2040.78 918.409 2031.75 920.216 2021.69 920.216C2011.62 920.216 2002.54 918.409 1994.46 914.796C1986.46 911.097 1979.62 906.107 1973.94 899.827C1968.26 893.547 1963.92 886.192 1960.91 877.761C1957.89 869.33 1956.39 860.34 1956.39 850.791V737.233H1959.49V850.533C1959.49 859.738 1960.91 868.427 1963.74 876.6C1966.58 884.686 1970.67 891.784 1976 897.892C1981.34 903.914 1987.83 908.688 1995.49 912.215C2003.23 915.657 2011.96 917.377 2021.69 917.377Z" stroke="white" stroke-width="24.088" mask="url(#path-15-outside-1_216_6403)"/>
<path d="M2283.44 740.072H2215.57V917.893H2212.47V740.072H2144.08V737.233H2283.44V740.072Z" stroke="white" stroke-width="24.088" mask="url(#path-15-outside-1_216_6403)"/>
<path d="M2346.11 828.08H2382.5C2391.37 828.08 2399.32 827.047 2406.38 824.983C2413.52 822.832 2419.58 819.821 2424.57 815.95C2429.65 811.992 2433.52 807.218 2436.19 801.626C2438.94 795.948 2440.32 789.539 2440.32 782.398C2440.32 767.688 2435.54 756.934 2425.99 750.138C2416.44 743.255 2402.72 739.814 2384.83 739.814H2346.11V828.08ZM2459.67 917.893H2457.61C2456.92 917.893 2456.36 917.85 2455.93 917.764C2455.5 917.592 2454.94 917.119 2454.25 916.345L2386.63 835.306C2385.95 834.446 2385.21 833.714 2384.44 833.112C2383.75 832.51 2382.93 832.037 2381.99 831.693C2381.13 831.263 2380.05 831.005 2378.76 830.919C2377.56 830.746 2376.05 830.66 2374.25 830.66H2346.11V917.893H2343.02V737.233H2384.83C2403.67 737.233 2418.12 740.89 2428.19 748.202C2438.34 755.515 2443.41 766.913 2443.41 782.398C2443.41 789.711 2441.99 796.335 2439.15 802.271C2436.32 808.121 2432.32 813.111 2427.15 817.24C2421.99 821.369 2415.8 824.595 2408.57 826.918C2401.43 829.241 2393.52 830.488 2384.83 830.66C2385.69 831.005 2386.46 831.478 2387.15 832.08C2387.84 832.596 2388.53 833.241 2389.21 834.016L2459.67 917.893Z" stroke="white" stroke-width="24.088" mask="url(#path-15-outside-1_216_6403)"/>
<path d="M2524.41 917.893H2521.31V737.233H2524.41V917.893Z" stroke="white" stroke-width="24.088" mask="url(#path-15-outside-1_216_6403)"/>
<path d="M2723.3 740.072H2655.42V917.893H2652.32V740.072H2583.93V737.233H2723.3V740.072Z" stroke="white" stroke-width="24.088" mask="url(#path-15-outside-1_216_6403)"/>
<path d="M2785.97 917.893H2782.87V737.233H2785.97V917.893Z" stroke="white" stroke-width="24.088" mask="url(#path-15-outside-1_216_6403)"/>
<path d="M3026.41 827.563C3026.41 841.844 3024.35 854.662 3020.22 866.018C3016.17 877.374 3010.45 887.052 3003.05 895.053C2995.74 902.967 2986.97 909.075 2976.73 913.377C2966.49 917.592 2955.18 919.7 2942.79 919.7C2930.49 919.7 2919.22 917.592 2908.98 913.377C2898.83 909.075 2890.06 902.967 2882.66 895.053C2875.35 887.052 2869.62 877.374 2865.5 866.018C2861.45 854.662 2859.43 841.844 2859.43 827.563C2859.43 813.369 2861.45 800.593 2865.5 789.238C2869.62 777.796 2875.35 768.075 2882.66 760.074C2890.06 752.073 2898.83 745.922 2908.98 741.621C2919.22 737.32 2930.49 735.169 2942.79 735.169C2955.18 735.169 2966.49 737.32 2976.73 741.621C2986.97 745.836 2995.74 751.944 3003.05 759.945C3010.45 767.946 3016.17 777.667 3020.22 789.109C3024.35 800.464 3026.41 813.283 3026.41 827.563ZM3023.06 827.563C3023.06 813.541 3021.08 800.981 3017.12 789.883C3013.25 778.785 3007.79 769.365 3000.73 761.623C2993.68 753.88 2985.2 747.987 2975.31 743.944C2965.5 739.814 2954.66 737.75 2942.79 737.75C2931.09 737.75 2920.34 739.814 2910.53 743.944C2900.72 747.987 2892.25 753.88 2885.11 761.623C2878.06 769.365 2872.51 778.785 2868.46 789.883C2864.51 800.981 2862.53 813.541 2862.53 827.563C2862.53 841.586 2864.51 854.146 2868.46 865.244C2872.51 876.256 2878.06 885.633 2885.11 893.375C2892.25 901.032 2900.72 906.925 2910.53 911.054C2920.34 915.097 2931.09 917.119 2942.79 917.119C2954.66 917.119 2965.5 915.097 2975.31 911.054C2985.2 906.925 2993.68 901.032 3000.73 893.375C3007.79 885.633 3013.25 876.256 3017.12 865.244C3021.08 854.146 3023.06 841.586 3023.06 827.563Z" stroke="white" stroke-width="24.088" mask="url(#path-15-outside-1_216_6403)"/>
<path d="M3233.06 737.233V917.893H3232.28C3231.76 917.893 3231.29 917.592 3230.86 916.99L3102.33 742.008C3102.42 742.61 3102.46 743.169 3102.46 743.686C3102.46 744.202 3102.46 744.718 3102.46 745.234V917.893H3099.88V737.233H3100.92C3101.69 737.233 3102.29 737.578 3102.72 738.266L3230.6 912.344C3230.52 911.914 3230.47 911.484 3230.47 911.054C3230.47 910.538 3230.47 910.065 3230.47 909.635V737.233H3233.06Z" stroke="white" stroke-width="24.088" mask="url(#path-15-outside-1_216_6403)"/>
<defs>
<linearGradient id="paint0_linear_216_6403" x1="556.465" y1="43.3179" x2="556.465" y2="1027.15" gradientUnits="userSpaceOnUse">
<stop stop-color="white"/>
<stop offset="0.775" stop-color="#B8DEF2"/>
</linearGradient>
<linearGradient id="paint1_linear_216_6403" x1="556.465" y1="43.3179" x2="556.465" y2="1027.15" gradientUnits="userSpaceOnUse">
<stop stop-color="#F3FBFF"/>
<stop offset="0.535" stop-color="#A7C4D8"/>
</linearGradient>
<linearGradient id="paint2_linear_216_6403" x1="556.465" y1="43.3179" x2="556.465" y2="1027.15" gradientUnits="userSpaceOnUse">
<stop stop-color="white"/>
<stop offset="0.775" stop-color="#B8DEF2"/>
</linearGradient>
<linearGradient id="paint3_linear_216_6403" x1="556.465" y1="43.3179" x2="556.465" y2="1027.15" gradientUnits="userSpaceOnUse">
<stop stop-color="#F3FBFF"/>
<stop offset="0.535" stop-color="#A7C4D8"/>
</linearGradient>
<linearGradient id="paint4_linear_216_6403" x1="751.998" y1="471.6" x2="751.998" y2="541.459" gradientUnits="userSpaceOnUse">
<stop stop-color="white"/>
<stop offset="1" stop-color="#A5C2D7"/>
</linearGradient>
</defs>
</svg>
